<svg width="33" height="33" viewBox="0 0 33 33" fill="none" xmlns="http://www.w3.org/2000/svg">
<circle cx="16.5" cy="16.5" r="16.5" fill="#FF364E"/>
<path d="M17.9592 10.368L17.6392 18.032H15.3192L14.9992 10.368H17.9592ZM16.5192 22.128C16.0392 22.128 15.6445 21.9893 15.3352 21.712C15.0365 21.424 14.8872 21.072 14.8872 20.656C14.8872 20.2293 15.0365 19.872 15.3352 19.584C15.6445 19.296 16.0392 19.152 16.5192 19.152C16.9885 19.152 17.3725 19.296 17.6712 19.584C17.9805 19.872 18.1352 20.2293 18.1352 20.656C18.1352 21.072 17.9805 21.424 17.6712 21.712C17.3725 21.9893 16.9885 22.128 16.5192 22.128Z" fill="white"/>
<path d="M16.5 3C9.0561 3 3 9.0561 3 16.5C3 23.9439 9.0561 30 16.5 30C23.9439 30 30 23.9439 30 16.5C30 9.0561 23.9439 3 16.5 3ZM16.5 27.3C10.5452 27.3 5.7 22.4548 5.7 16.5C5.7 10.5452 10.5452 5.7 16.5 5.7C22.4548 5.7 27.3 10.5452 27.3 16.5C27.3 22.4548 22.4548 27.3 16.5 27.3Z" fill="white"/>
</svg>
