<svg width="33" height="33" viewBox="0 0 33 33" fill="none" xmlns="http://www.w3.org/2000/svg">
<circle cx="16.5" cy="16.5" r="16.5" fill="#48BF84"/>
<path d="M8 17.5105L13.4791 23L24 12.4896L22.4896 11L13.4791 19.9999L9.48953 16.0104L8 17.5105Z" fill="white"/>
<path d="M16.5 3C9.0561 3 3 9.0561 3 16.5C3 23.9439 9.0561 30 16.5 30C23.9439 30 30 23.9439 30 16.5C30 9.0561 23.9439 3 16.5 3ZM16.5 27.3C10.5452 27.3 5.7 22.4548 5.7 16.5C5.7 10.5452 10.5452 5.7 16.5 5.7C22.4548 5.7 27.3 10.5452 27.3 16.5C27.3 22.4548 22.4548 27.3 16.5 27.3Z" fill="white"/>
</svg>
