<svg width="33" height="33" viewBox="0 0 33 33" fill="none" xmlns="http://www.w3.org/2000/svg">
<circle cx="16.5" cy="16.5" r="16.5" fill="#FFC122"/>
<path d="M16.5 3C9.0561 3 3 9.0561 3 16.5C3 23.9439 9.0561 30 16.5 30C23.9439 30 30 23.9439 30 16.5C30 9.0561 23.9439 3 16.5 3ZM16.5 27.3C10.5452 27.3 5.7 22.4548 5.7 16.5C5.7 10.5452 10.5452 5.7 16.5 5.7C22.4548 5.7 27.3 10.5452 27.3 16.5C27.3 22.4548 22.4548 27.3 16.5 27.3Z" fill="white"/>
<path d="M17.85 9.75H15.15V17.85H23.25V15.15H17.85V9.75Z" fill="white"/>
</svg>
