<svg width="15" height="35" viewBox="0 0 15 35" fill="none" xmlns="http://www.w3.org/2000/svg">
<path d="M14.7071 8.70711C15.0976 8.31658 15.0976 7.68342 14.7071 7.29289L8.34315 0.928933C7.95262 0.538408 7.31946 0.538408 6.92893 0.928933C6.53841 1.31946 6.53841 1.95262 6.92893 2.34315L12.5858 8L6.92893 13.6569C6.53841 14.0474 6.53841 14.6805 6.92893 15.0711C7.31946 15.4616 7.95262 15.4616 8.34315 15.0711L14.7071 8.70711ZM1 9L14 9L14 7L1 7L1 9Z" fill="#252644"/>
<path d="M0.292893 27.7071C-0.0976314 27.3166 -0.0976315 26.6834 0.292893 26.2929L6.65685 19.9289C7.04738 19.5384 7.68054 19.5384 8.07107 19.9289C8.46159 20.3195 8.46159 20.9526 8.07107 21.3431L2.41421 27L8.07107 32.6569C8.46159 33.0474 8.46159 33.6805 8.07107 34.0711C7.68054 34.4616 7.04738 34.4616 6.65685 34.0711L0.292893 27.7071ZM14 28L1 28L1 26L14 26L14 28Z" fill="#C4C5DA"/>
</svg>
