<svg width="45" height="45" fill="none" xmlns="http://www.w3.org/2000/svg"><circle cx="22.5" cy="22.5" r="21.5" stroke="#70719C" stroke-width="2"/><path d="M28.353 21.233a14.614 14.614 0 00-3.107-2.1c-.46-.233-2.071-1.516-1.496-3.266l-1.035-.467c1.495-2.45 3.567-4.783 5.983-7.117-1.956.7-3.682 1.75-5.063 3.617.806-1.633 2.071-3.267 3.452-4.9-1.956 1.4-3.567 2.917-4.603 5.017L23.29 9.1c-1.036 1.867-1.841 3.85-2.072 5.717l-1.495-.7-.23.233c1.38 2.45.69 3.733 0 4.2-1.382.933-3.223 2.1-4.258 3.15-1.842 1.983-2.417 3.733-2.187 6.183.23 3.15 2.417 5.717 5.409 6.65 1.15.467 2.416.467 3.797.467 2.187 0 4.373-.583 5.984-1.983C29.964 31.617 31 29.4 31 27.183c-.115-2.216-1.036-4.433-2.647-5.95zM24.21 31.617c-.115.466-.46 1.05-.805 1.516.115-.233.23-.583.345-.933.69-2.333.92-3.383.576-5.95 0-.233-.116-1.05-.576-1.983-.575-1.4-1.38-2.684-1.496-2.917-.23-.467-.46-2.333-.46-3.617 0 1.05.115 3.15.345 3.85.115.234.806 1.4 1.381 2.917.345.933.46 1.867.46 2.217.23 1.166 0 3.15-.46 5.016-.115.7-.46 1.517-.92 2.1.23-.35.46-.816.575-1.4.345-1.05.46-2.45.46-3.383 0-.467-.23-1.633-.69-2.683a8.92 8.92 0 00-.806-1.517c0-.467 0-1.283-.115-2.333 0 1.05-.115 1.633.23 2.333.115.467.69 1.05.92 1.633.23.817.461 1.75.461 2.217 0 .583 0 1.75-.345 3.033-.23.934-.575 1.75-1.266 2.217.115-.117.345-.583.46-.933.115-.584.115-1.05.23-1.75 0-.7 0-1.4-.115-1.984-.23-.933-.575-1.866-.69-2.566 0 .7.345 1.633.46 2.566.115.7 0 1.4 0 1.984 0 .7-.23 1.983-.575 2.683-.345-.117-.46-.35-.576-.583-.23-.35-.46-.7-.575-1.167l-.345-1.05c-.115-.933.115-1.867.69-2.567.576-.816.69-.816.806-1.75-.23.817-.46.934-1.036 1.517-.805.933-.92 1.983-.92 2.917 0 .35.115.816.23 1.166.115.467.345.817.46 1.167.345.233.46.467.69.583-.69-.233-1.38-.466-1.84-.816-1.036-.934-2.072-2.567-2.187-3.967-.115-1.167.92-2.8 2.416-3.617 1.266-.7 1.496-1.516 1.727-2.916-.346 1.166-.69 2.1-1.957 2.683-1.726.933-2.531 2.45-2.531 3.967.115 1.866.805 3.15 2.301 4.2.345.233.806.466 1.266.7-1.841-.467-2.071-.7-2.647-1.4 0 0-.115-.117-.115-.234-.805-.933-1.841-2.566-2.186-4.083-.115-.467-.23-1.05-.115-1.633.69-2.45 2.186-3.384 3.567-4.434.575-.233.92-.466 1.266-.7.805-.7 1.035-2.333 1.266-3.266-.346 1.166-.69 2.683-1.381 3.15l-1.036.7c-1.611.933-3.107 1.983-3.797 4.433-.116.7 0 1.167.115 1.75.345 1.517 1.38 3.15 2.301 4.2l.115.117c.345.466.92.816 1.496 1.05-.575-.117-1.035-.234-1.496-.467-2.416-1.167-4.027-3.733-4.143-5.717-.23-4.2 1.727-5.366 3.683-7 1.036-.816 2.416-1.283 3.337-2.8.115-.35.23-1.05 0-1.866-.115-.234-.46-1.167-.575-1.4l2.301 1.05c0 1.05-.115 1.983.115 2.8.23.933 1.381 2.216 1.842 3.616.805 2.8.575 6.417-.116 9.334z" fill="#70719C"/></svg>