<svg width="45" height="45" fill="none" xmlns="http://www.w3.org/2000/svg"><path d="M22.505 31C26.321 31 29 29.05 29 25.575c0-3.1-2.022-4.375-5.61-5.3-3.058-.775-3.816-1.15-3.816-2.3 0-.9.783-1.575 2.274-1.575s3.033.65 4.6 1.725l2.021-2.9C26.675 13.8 24.477 13 21.9 13c-3.614 0-6.191 2.1-6.191 5.275 0 3.525 2.3 4.5 5.862 5.4 2.957.75 3.564 1.25 3.564 2.225 0 1.075-.96 1.7-2.553 1.7-2.021 0-3.69-.825-5.281-2.125L15 28.2c2.123 1.875 4.827 2.8 7.505 2.8z" fill="#70719C"/><circle cx="22.5" cy="22.5" r="21.5" stroke="#70719C" stroke-width="2"/><path fill="#70719C" d="M6 8.15l1.414-1.413 31.113 31.112-1.414 1.415z"/></svg>