<svg width="45" height="45" fill="none" xmlns="http://www.w3.org/2000/svg"><circle cx="22.5" cy="22.5" r="21.5" stroke="#70719C" stroke-width="2"/><mask id="a" maskUnits="userSpaceOnUse" x="8" y="7" width="30" height="27" fill="#000"><path fill="#fff" d="M8 7h30v27H8z"/><path d="M36.981 19.102a4.894 4.894 0 00-.15-.862c-.006-.015-.006-.025-.01-.04a4.984 4.984 0 00-2.557-3.096 4.648 4.648 0 00-1.967-.49 4.737 4.737 0 00-.976.082c.246-.66.357-1.372.312-2.084-.146-2.404-2.018-4.375-4.353-4.591a4.762 4.762 0 00-1.328.062 3.6 3.6 0 00-1.525.717l-8.82 6.892c-.005.005-.01.005-.015.01a4.96 4.96 0 00-2.084 4.06c0 1.383.559 2.636 1.46 3.529a4.785 4.785 0 00-1.163-.145C11.154 23.146 9 25.355 9 28.073 9 30.787 11.154 33 13.805 33c2.068 0 3.834-1.346 4.509-3.224.674 1.883 2.44 3.224 4.508 3.224a4.711 4.711 0 003.195-1.254c.01-.01.025-.015.035-.025l10.019-9.684c.437-.433.73-.97.84-1.547a5.15 5.15 0 00.07-1.388zM24.784 9.285a2.972 2.972 0 011.279-.604 4.209 4.209 0 011.167-.057c2.048.186 3.688 1.92 3.819 4.024a4.487 4.487 0 01-.433 2.208l-.1.093c-.005.005-.01.005-.01.01l-.806.764-7.24 6.526a4.98 4.98 0 00.659-2.482c0-1.16-.392-2.223-1.047-3.07l3.784-3.285a.309.309 0 00.035-.429.29.29 0 00-.417-.036l-3.8 3.297a4.721 4.721 0 00-4.065-1.357l7.175-5.602zM14.097 19.762c0-2.383 1.892-4.318 4.212-4.318 2.324 0 4.211 1.94 4.211 4.318 0 2.378-1.892 4.318-4.211 4.318-2.32.005-4.212-1.934-4.212-4.318zm4.217 4.927c.402 0 .79-.052 1.162-.144a4.954 4.954 0 00-1.162 1.831 5.019 5.019 0 00-1.163-1.831c.373.092.76.144 1.163.144zm-4.509 7.702c-2.324 0-4.211-1.94-4.211-4.318 0-2.378 1.892-4.318 4.211-4.318 2.325 0 4.212 1.94 4.212 4.318 0 2.378-1.892 4.318-4.212 4.318zm4.8-4.318c0-2.383 1.892-4.318 4.212-4.318 2.325 0 4.212 1.94 4.212 4.318 0 2.378-1.892 4.318-4.212 4.318s-4.212-1.934-4.212-4.318zm17.727-7.702a2.34 2.34 0 01-.674 1.233l-8.267 7.991a5.026 5.026 0 00-.408-3.983l2.164-1.934c.12-.108.136-.3.03-.428a.295.295 0 00-.418-.031l-2.103 1.883c-.875-1.187-2.27-1.96-3.829-1.96-.166 0-.332.01-.498.025l7.774-7 .77-.733a4.048 4.048 0 012.767.041l-5.962 5.515a.308.308 0 00-.02.428.294.294 0 00.417.02l6.144-5.679a4.36 4.36 0 011.992 2.45l-3.26 3.1a.308.308 0 00-.015.43c.06.061.136.097.216.097.07 0 .146-.026.201-.082l3.014-2.869a4.678 4.678 0 01-.035 1.486z"/><path d="M25.096 17.167c.06.062.136.098.217.098a.28.28 0 00.201-.082l4.408-4.205a.308.308 0 00.015-.428.29.29 0 00-.418-.015l-4.407 4.204a.308.308 0 00-.016.428zm-6.782 4.607c1.081 0 1.962-.903 1.962-2.012s-.88-2.012-1.962-2.012c-1.082 0-1.963.903-1.963 2.012 0 1.11.88 2.012 1.963 2.012zm0-3.415c.754 0 1.368.63 1.368 1.403 0 .774-.614 1.404-1.368 1.404-.755 0-1.369-.63-1.369-1.404a1.381 1.381 0 011.369-1.403zm4.508 7.702c-1.082 0-1.962.903-1.962 2.012 0 1.11.88 2.012 1.962 2.012 1.082 0 1.962-.903 1.962-2.012-.005-1.109-.885-2.012-1.962-2.012zm0 3.416c-.755 0-1.369-.63-1.369-1.404 0-.774.614-1.403 1.37-1.403.754 0 1.368.63 1.368 1.403 0 .774-.614 1.404-1.369 1.404zm-9.017-3.416c-1.082 0-1.962.903-1.962 2.012 0 1.11.88 2.012 1.962 2.012 1.082 0 1.963-.903 1.963-2.012-.005-1.109-.886-2.012-1.963-2.012zm0 3.416c-.755 0-1.368-.63-1.368-1.404 0-.774.614-1.403 1.368-1.403.755 0 1.369.63 1.369 1.403 0 .774-.614 1.404-1.369 1.404z"/></mask><path d="M36.981 19.102a4.894 4.894 0 00-.15-.862c-.006-.015-.006-.025-.01-.04a4.984 4.984 0 00-2.557-3.096 4.648 4.648 0 00-1.967-.49 4.737 4.737 0 00-.976.082c.246-.66.357-1.372.312-2.084-.146-2.404-2.018-4.375-4.353-4.591a4.762 4.762 0 00-1.328.062 3.6 3.6 0 00-1.525.717l-8.82 6.892c-.005.005-.01.005-.015.01a4.96 4.96 0 00-2.084 4.06c0 1.383.559 2.636 1.46 3.529a4.785 4.785 0 00-1.163-.145C11.154 23.146 9 25.355 9 28.073 9 30.787 11.154 33 13.805 33c2.068 0 3.834-1.346 4.509-3.224.674 1.883 2.44 3.224 4.508 3.224a4.711 4.711 0 003.195-1.254c.01-.01.025-.015.035-.025l10.019-9.684c.437-.433.73-.97.84-1.547a5.15 5.15 0 00.07-1.388zM24.784 9.285a2.972 2.972 0 011.279-.604 4.209 4.209 0 011.167-.057c2.048.186 3.688 1.92 3.819 4.024a4.487 4.487 0 01-.433 2.208l-.1.093c-.005.005-.01.005-.01.01l-.806.764-7.24 6.526a4.98 4.98 0 00.659-2.482c0-1.16-.392-2.223-1.047-3.07l3.784-3.285a.309.309 0 00.035-.429.29.29 0 00-.417-.036l-3.8 3.297a4.721 4.721 0 00-4.065-1.357l7.175-5.602zM14.097 19.762c0-2.383 1.892-4.318 4.212-4.318 2.324 0 4.211 1.94 4.211 4.318 0 2.378-1.892 4.318-4.211 4.318-2.32.005-4.212-1.934-4.212-4.318zm4.217 4.927c.402 0 .79-.052 1.162-.144a4.954 4.954 0 00-1.162 1.831 5.019 5.019 0 00-1.163-1.831c.373.092.76.144 1.163.144zm-4.509 7.702c-2.324 0-4.211-1.94-4.211-4.318 0-2.378 1.892-4.318 4.211-4.318 2.325 0 4.212 1.94 4.212 4.318 0 2.378-1.892 4.318-4.212 4.318zm4.8-4.318c0-2.383 1.892-4.318 4.212-4.318 2.325 0 4.212 1.94 4.212 4.318 0 2.378-1.892 4.318-4.212 4.318s-4.212-1.934-4.212-4.318zm17.727-7.702a2.34 2.34 0 01-.674 1.233l-8.267 7.991a5.026 5.026 0 00-.408-3.983l2.164-1.934c.12-.108.136-.3.03-.428a.295.295 0 00-.418-.031l-2.103 1.883c-.875-1.187-2.27-1.96-3.829-1.96-.166 0-.332.01-.498.025l7.774-7 .77-.733a4.048 4.048 0 012.767.041l-5.962 5.515a.308.308 0 00-.02.428.294.294 0 00.417.02l6.144-5.679a4.36 4.36 0 011.992 2.45l-3.26 3.1a.308.308 0 00-.015.43c.06.061.136.097.216.097.07 0 .146-.026.201-.082l3.014-2.869a4.678 4.678 0 01-.035 1.486z" fill="#70719C"/><path d="M25.096 17.167c.06.062.136.098.217.098a.28.28 0 00.201-.082l4.408-4.205a.308.308 0 00.015-.428.29.29 0 00-.418-.015l-4.407 4.204a.308.308 0 00-.016.428zm-6.782 4.607c1.081 0 1.962-.903 1.962-2.012s-.88-2.012-1.962-2.012c-1.082 0-1.963.903-1.963 2.012 0 1.11.88 2.012 1.963 2.012zm0-3.415c.754 0 1.368.63 1.368 1.403 0 .774-.614 1.404-1.368 1.404-.755 0-1.369-.63-1.369-1.404a1.381 1.381 0 011.369-1.403zm4.508 7.702c-1.082 0-1.962.903-1.962 2.012 0 1.11.88 2.012 1.962 2.012 1.082 0 1.962-.903 1.962-2.012-.005-1.109-.885-2.012-1.962-2.012zm0 3.416c-.755 0-1.369-.63-1.369-1.404 0-.774.614-1.403 1.37-1.403.754 0 1.368.63 1.368 1.403 0 .774-.614 1.404-1.369 1.404zm-9.017-3.416c-1.082 0-1.962.903-1.962 2.012 0 1.11.88 2.012 1.962 2.012 1.082 0 1.963-.903 1.963-2.012-.005-1.109-.886-2.012-1.963-2.012zm0 3.416c-.755 0-1.368-.63-1.368-1.404 0-.774.614-1.403 1.368-1.403.755 0 1.369.63 1.369 1.403 0 .774-.614 1.404-1.369 1.404z" fill="#70719C"/><path d="M36.981 19.102a4.894 4.894 0 00-.15-.862c-.006-.015-.006-.025-.01-.04a4.984 4.984 0 00-2.557-3.096 4.648 4.648 0 00-1.967-.49 4.737 4.737 0 00-.976.082c.246-.66.357-1.372.312-2.084-.146-2.404-2.018-4.375-4.353-4.591a4.762 4.762 0 00-1.328.062 3.6 3.6 0 00-1.525.717l-8.82 6.892c-.005.005-.01.005-.015.01a4.96 4.96 0 00-2.084 4.06c0 1.383.559 2.636 1.46 3.529a4.785 4.785 0 00-1.163-.145C11.154 23.146 9 25.355 9 28.073 9 30.787 11.154 33 13.805 33c2.068 0 3.834-1.346 4.509-3.224.674 1.883 2.44 3.224 4.508 3.224a4.711 4.711 0 003.195-1.254c.01-.01.025-.015.035-.025l10.019-9.684c.437-.433.73-.97.84-1.547a5.15 5.15 0 00.07-1.388zM24.784 9.285a2.972 2.972 0 011.279-.604 4.209 4.209 0 011.167-.057c2.048.186 3.688 1.92 3.819 4.024a4.487 4.487 0 01-.433 2.208l-.1.093c-.005.005-.01.005-.01.01l-.806.764-7.24 6.526a4.98 4.98 0 00.659-2.482c0-1.16-.392-2.223-1.047-3.07l3.784-3.285a.309.309 0 00.035-.429.29.29 0 00-.417-.036l-3.8 3.297a4.721 4.721 0 00-4.065-1.357l7.175-5.602zM14.097 19.762c0-2.383 1.892-4.318 4.212-4.318 2.324 0 4.211 1.94 4.211 4.318 0 2.378-1.892 4.318-4.211 4.318-2.32.005-4.212-1.934-4.212-4.318zm4.217 4.927c.402 0 .79-.052 1.162-.144a4.954 4.954 0 00-1.162 1.831 5.019 5.019 0 00-1.163-1.831c.373.092.76.144 1.163.144zm-4.509 7.702c-2.324 0-4.211-1.94-4.211-4.318 0-2.378 1.892-4.318 4.211-4.318 2.325 0 4.212 1.94 4.212 4.318 0 2.378-1.892 4.318-4.212 4.318zm4.8-4.318c0-2.383 1.892-4.318 4.212-4.318 2.325 0 4.212 1.94 4.212 4.318 0 2.378-1.892 4.318-4.212 4.318s-4.212-1.934-4.212-4.318zm17.727-7.702a2.34 2.34 0 01-.674 1.233l-8.267 7.991a5.026 5.026 0 00-.408-3.983l2.164-1.934c.12-.108.136-.3.03-.428a.295.295 0 00-.418-.031l-2.103 1.883c-.875-1.187-2.27-1.96-3.829-1.96-.166 0-.332.01-.498.025l7.774-7 .77-.733a4.048 4.048 0 012.767.041l-5.962 5.515a.308.308 0 00-.02.428.294.294 0 00.417.02l6.144-5.679a4.36 4.36 0 011.992 2.45l-3.26 3.1a.308.308 0 00-.015.43c.06.061.136.097.216.097.07 0 .146-.026.201-.082l3.014-2.869a4.678 4.678 0 01-.035 1.486z" stroke="#70719C" stroke-width=".6" mask="url(#a)"/><path d="M25.096 17.167c.06.062.136.098.217.098a.28.28 0 00.201-.082l4.408-4.205a.308.308 0 00.015-.428.29.29 0 00-.418-.015l-4.407 4.204a.308.308 0 00-.016.428zm-6.782 4.607c1.081 0 1.962-.903 1.962-2.012s-.88-2.012-1.962-2.012c-1.082 0-1.963.903-1.963 2.012 0 1.11.88 2.012 1.963 2.012zm0-3.415c.754 0 1.368.63 1.368 1.403 0 .774-.614 1.404-1.368 1.404-.755 0-1.369-.63-1.369-1.404a1.381 1.381 0 011.369-1.403zm4.508 7.702c-1.082 0-1.962.903-1.962 2.012 0 1.11.88 2.012 1.962 2.012 1.082 0 1.962-.903 1.962-2.012-.005-1.109-.885-2.012-1.962-2.012zm0 3.416c-.755 0-1.369-.63-1.369-1.404 0-.774.614-1.403 1.37-1.403.754 0 1.368.63 1.368 1.403 0 .774-.614 1.404-1.369 1.404zm-9.017-3.416c-1.082 0-1.962.903-1.962 2.012 0 1.11.88 2.012 1.962 2.012 1.082 0 1.963-.903 1.963-2.012-.005-1.109-.886-2.012-1.963-2.012zm0 3.416c-.755 0-1.368-.63-1.368-1.404 0-.774.614-1.403 1.368-1.403.755 0 1.369.63 1.369 1.403 0 .774-.614 1.404-1.369 1.404z" stroke="#70719C" stroke-width=".6" mask="url(#a)"/><path fill="#70719C" d="M6.737 7.15l1.414-1.414L39.264 36.85l-1.414 1.414z"/></svg>