<svg width="23" height="23" fill="none" xmlns="http://www.w3.org/2000/svg"><path d="M11.501 21.384c-5.45 0-9.885-4.434-9.885-9.883 0-5.45 4.435-9.885 9.885-9.885s9.883 4.434 9.883 9.885c0 5.449-4.433 9.883-9.883 9.883zm0-21.384C5.16 0 0 5.16 0 11.5 0 17.841 5.16 23 11.501 23 17.841 23 23 17.841 23 11.5 23 5.16 17.842 0 11.501 0z" fill="#fff"/><path d="M14.517 8.774l-3.751 3.75-2.283-2.282a.808.808 0 10-1.143 1.143l2.854 2.854a.806.806 0 001.143 0l4.322-4.322a.808.808 0 10-1.142-1.143z" fill="#fff"/></svg>