<svg width="19" height="22" viewBox="0 0 19 22" fill="none" xmlns="http://www.w3.org/2000/svg">
<path d="M7.25618 21.8451L8.25812 20.8481C8.46562 20.6416 8.46569 20.3069 8.25812 20.1003L4.52631 16.3868L10.7664 16.3868C15.3064 16.3868 19 12.7113 19 8.1936C19 3.67569 15.3064 -1.6145e-07 10.7664 -3.59902e-07L1.48495 -7.65607e-07C1.19151 -7.78434e-07 0.953621 0.236656 0.953621 0.528723L0.953621 1.93865C0.953621 2.23072 1.19151 2.46738 1.48495 2.46738L10.7664 2.46738C13.9392 2.46738 16.5205 5.03613 16.5205 8.19367C16.5205 11.3509 13.9392 13.9195 10.7664 13.9195L4.52631 13.9195L8.25805 10.206C8.35772 10.1068 8.41369 9.9723 8.41369 9.83208C8.41369 9.69187 8.35772 9.55743 8.25805 9.45817L7.25611 8.46121C7.15651 8.36209 7.02134 8.3064 6.88043 8.3064C6.73953 8.3064 6.60436 8.36209 6.50475 8.46121L0.155645 14.7792C0.0518602 14.8825 1.2509e-06 15.0178 1.24498e-06 15.1532C1.23907e-06 15.2884 0.0518601 15.4238 0.155645 15.5271L6.50475 21.8452C6.60436 21.9443 6.73952 22 6.88043 22C7.02141 21.9999 7.15651 21.9442 7.25618 21.8451Z" fill="white"/>
</svg>
