<svg width="22" height="22" fill="none" xmlns="http://www.w3.org/2000/svg"><path d="M21.219 3.035a.86.86 0 00-.934.778l-.114 1.249C18.239 2.028 14.886 0 11 0 6.82 0 3.136 2.386 1.308 5.966a.86.86 0 101.53.782c1.548-3.03 4.656-5.03 8.162-5.03a9.156 9.156 0 017.732 4.272l-1.225-.875a.86.86 0 00-.999 1.399l3.716 2.653a.86.86 0 001.355-.62l.417-4.578a.86.86 0 00-.777-.934zm-.901 11.842a.86.86 0 00-1.156.375c-1.548 3.03-4.656 5.03-8.162 5.03a9.156 9.156 0 01-7.732-4.272l1.225.875a.86.86 0 00.999-1.399l-3.716-2.654a.86.86 0 00-1.355.622L.004 18.03a.86.86 0 001.711.156l.114-1.249C3.761 19.972 7.114 22 11 22c4.18 0 7.864-2.386 9.692-5.966a.86.86 0 00-.374-1.157z" fill="#fff"/></svg>