<svg width="71" height="71" fill="none" xmlns="http://www.w3.org/2000/svg"><path d="M1 .77h2.77v2.769H1V.769zm2.77 0h2.768v2.769H3.77V.769zm2.768 0h2.77v2.769h-2.77V.769zm2.77 0h2.769v2.769h-2.77V.769zm2.769 0h2.77v2.769h-2.77V.769zm2.77 0h2.768v2.769h-2.769V.769zm2.768 0h2.77v2.769h-2.77V.769zm11.077 0h2.77v2.769h-2.77V.769zm5.539 0H37v2.769h-2.77V.769zM37 .77h2.77v2.769H37V.769zm13.846 0h2.77v2.769h-2.77V.769zm2.77 0h2.769v2.769h-2.77V.769zm2.769 0h2.769v2.769h-2.77V.769zm2.769 0h2.77v2.769h-2.77V.769zm2.77 0h2.768v2.769h-2.769V.769zm2.768 0h2.77v2.769h-2.77V.769zm2.77 0h2.769v2.769h-2.77V.769zM1 3.538h2.77v2.769H1v-2.77zm16.615 0h2.77v2.769h-2.77v-2.77zm8.308 0h2.77v2.769h-2.77v-2.77zm2.77 0h2.768v2.769h-2.769v-2.77zm2.768 0h2.77v2.769h-2.77v-2.77zm2.77 0H37v2.769h-2.77v-2.77zm5.538 0h2.77v2.769h-2.77v-2.77zm11.077 0h2.77v2.769h-2.77v-2.77zm16.616 0h2.769v2.769h-2.77v-2.77zM1 6.308h2.77v2.769H1v-2.77zm5.538 0h2.77v2.769h-2.77v-2.77zm2.77 0h2.769v2.769h-2.77v-2.77zm2.769 0h2.77v2.769h-2.77v-2.77zm5.538 0h2.77v2.769h-2.77v-2.77zm11.077 0h2.77v2.769h-2.77v-2.77zm8.308 0h2.77v2.769H37v-2.77zm8.308 0h2.769v2.769h-2.77v-2.77zm5.538 0h2.77v2.769h-2.77v-2.77zm5.539 0h2.769v2.769h-2.77v-2.77zm2.769 0h2.77v2.769h-2.77v-2.77zm2.77 0h2.768v2.769h-2.769v-2.77zm5.538 0h2.769v2.769h-2.77v-2.77zM1 9.077h2.77v2.77H1v-2.77zm5.538 0h2.77v2.77h-2.77v-2.77zm2.77 0h2.769v2.77h-2.77v-2.77zm2.769 0h2.77v2.77h-2.77v-2.77zm5.538 0h2.77v2.77h-2.77v-2.77zm5.539 0h2.77v2.77h-2.77v-2.77zm2.77 0h2.768v2.77h-2.769v-2.77zm11.076 0h2.77v2.77H37v-2.77zm8.308 0h2.769v2.77h-2.77v-2.77zm5.538 0h2.77v2.77h-2.77v-2.77zm5.539 0h2.769v2.77h-2.77v-2.77zm2.769 0h2.77v2.77h-2.77v-2.77zm2.77 0h2.768v2.77h-2.769v-2.77zm5.538 0h2.769v2.77h-2.77v-2.77zM1 11.847h2.77v2.768H1v-2.769zm5.538 0h2.77v2.768h-2.77v-2.769zm2.77 0h2.769v2.768h-2.77v-2.769zm2.769 0h2.77v2.768h-2.77v-2.769zm5.538 0h2.77v2.768h-2.77v-2.769zm8.308 0h2.77v2.768h-2.77v-2.769zm5.539 0h2.769v2.768h-2.77v-2.769zm8.307 0h2.77v2.768h-2.77v-2.769zm11.077 0h2.77v2.768h-2.77v-2.769zm5.539 0h2.769v2.768h-2.77v-2.769zm2.769 0h2.77v2.768h-2.77v-2.769zm2.77 0h2.768v2.768h-2.769v-2.769zm5.538 0h2.769v2.768h-2.77v-2.769zM1 14.614h2.77v2.77H1v-2.77zm16.615 0h2.77v2.77h-2.77v-2.77zm5.539 0h2.77v2.77h-2.77v-2.77zm5.538 0h2.77v2.77h-2.77v-2.77zm2.77 0h2.769v2.77h-2.77v-2.77zm2.769 0H37v2.77h-2.77v-2.77zm2.769 0h2.77v2.77H37v-2.77zm2.77 0h2.768v2.77H39.77v-2.77zm11.076 0h2.77v2.77h-2.77v-2.77zm16.616 0h2.769v2.77h-2.77v-2.77zM1 17.385h2.77v2.769H1v-2.77zm2.77 0h2.768v2.769H3.77v-2.77zm2.768 0h2.77v2.769h-2.77v-2.77zm2.77 0h2.769v2.769h-2.77v-2.77zm2.769 0h2.77v2.769h-2.77v-2.77zm2.77 0h2.768v2.769h-2.769v-2.77zm2.768 0h2.77v2.769h-2.77v-2.77zm5.539 0h2.77v2.769h-2.77v-2.77zm5.538 0h2.77v2.769h-2.77v-2.77zm5.539 0H37v2.769h-2.77v-2.77zm5.538 0h2.77v2.769h-2.77v-2.77zm5.539 0h2.769v2.769h-2.77v-2.77zm5.538 0h2.77v2.769h-2.77v-2.77zm2.77 0h2.769v2.769h-2.77v-2.77zm2.769 0h2.769v2.769h-2.77v-2.77zm2.769 0h2.77v2.769h-2.77v-2.77zm2.77 0h2.768v2.769h-2.769v-2.77zm2.768 0h2.77v2.769h-2.77v-2.77zm2.77 0h2.769v2.769h-2.77v-2.77zm-44.308 2.769h2.77v2.77h-2.77v-2.77zm8.308 0h2.769v2.77h-2.77v-2.77zm2.769 0H37v2.77h-2.77v-2.77zm5.538 0h2.77v2.77h-2.77v-2.77zm2.77 0h2.769v2.77h-2.77v-2.77zm2.769 0h2.769v2.77h-2.77v-2.77zm-41.539 2.77h2.77v2.768h-2.77v-2.769zm2.77 0h2.769v2.768h-2.77v-2.769zm11.076 0h2.77v2.768h-2.77v-2.769zm8.308 0h2.77v2.768h-2.77v-2.769zm2.77 0h2.768v2.768h-2.769v-2.769zm2.768 0h2.77v2.768h-2.77v-2.769zm5.539 0h2.77v2.768H37v-2.769zm2.77 0h2.768v2.768H39.77v-2.769zm5.538 0h2.769v2.768h-2.77v-2.769zm5.538 0h2.77v2.768h-2.77v-2.769zm2.77 0h2.769v2.768h-2.77v-2.769zm5.538 0h2.77v2.768h-2.77v-2.769zm-36 2.768h2.77v2.77h-2.77v-2.77zm5.538 0h2.77v2.77h-2.77v-2.77zm8.308 0h2.77v2.77H37v-2.77zm5.538 0h2.77v2.77h-2.77v-2.77zm5.539 0h2.77v2.77h-2.77v-2.77zm2.77 0h2.768v2.77h-2.769v-2.77zm2.768 0h2.77v2.77h-2.77v-2.77zm5.539 0h2.77v2.77h-2.77v-2.77zm5.538 0h2.77v2.77h-2.77v-2.77zm2.77 0h2.769v2.77h-2.77v-2.77zm-63.693 2.77h2.77v2.769h-2.77v-2.77zm13.846 0h2.77v2.769h-2.77v-2.77zm2.77 0h2.769v2.769h-2.77v-2.77zm8.307 0h2.77v2.769h-2.77v-2.77zm13.846 0h2.77v2.769h-2.77v-2.77zm2.77 0h2.769v2.769h-2.77v-2.77zm2.769 0h2.77v2.769h-2.77v-2.77zm2.77 0h2.768v2.769h-2.769v-2.77zm2.768 0h2.77v2.769h-2.77v-2.77zm5.539 0h2.77v2.769h-2.77v-2.77zm2.77 0h2.768v2.769h-2.769v-2.77zm5.538 0h2.769v2.769h-2.77v-2.77zM3.769 31.23h2.77V34h-2.77v-2.77zm2.77 0h2.769V34h-2.77v-2.77zm13.846 0h2.769V34h-2.77v-2.77zm2.769 0h2.77V34h-2.77v-2.77zm2.77 0h2.768V34h-2.769v-2.77zm2.768 0h2.77V34h-2.77v-2.77zm8.308 0h2.77V34H37v-2.77zm5.538 0h2.77V34h-2.77v-2.77zm11.077 0h2.77V34h-2.77v-2.77zm2.77 0h2.769V34h-2.77v-2.77zm2.769 0h2.77V34h-2.77v-2.77zM1 34h2.77v2.768H1V34zm2.77 0h2.768v2.768H3.77V34zm5.538 0h2.769v2.768h-2.77V34zm8.307 0h2.77v2.768h-2.77V34zm5.539 0h2.77v2.768h-2.77V34zM37 34h2.77v2.768H37V34zm5.538 0h2.77v2.768h-2.77V34zm8.308 0h2.77v2.768h-2.77V34zm2.77 0h2.769v2.768h-2.77V34zm13.846 0h2.769v2.768h-2.77V34zM9.307 36.768h2.769v2.77h-2.77v-2.77zm13.846 0h2.77v2.77h-2.77v-2.77zm5.538 0h2.77v2.77h-2.77v-2.77zm8.308 0h2.77v2.77H37v-2.77zm5.538 0h2.77v2.77h-2.77v-2.77zm2.77 0h2.769v2.77h-2.77v-2.77zm5.538 0h2.77v2.77h-2.77v-2.77zm2.77 0h2.769v2.77h-2.77v-2.77zm11.076 0h2.77v2.77h-2.77v-2.77zm2.77 0h2.769v2.77h-2.77v-2.77zM1 39.54h2.77v2.769H1v-2.77zm2.77 0h2.768v2.769H3.77v-2.77zm8.307 0h2.77v2.769h-2.77v-2.77zm2.77 0h2.768v2.769h-2.769v-2.77zm2.768 0h2.77v2.769h-2.77v-2.77zm5.539 0h2.77v2.769h-2.77v-2.77zm2.77 0h2.768v2.769h-2.769v-2.77zm5.538 0h2.769v2.769h-2.77v-2.77zm2.769 0H37v2.769h-2.77v-2.77zm2.769 0h2.77v2.769H37v-2.77zm2.77 0h2.768v2.769H39.77v-2.77zm2.768 0h2.77v2.769h-2.77v-2.77zm16.616 0h2.77v2.769h-2.77v-2.77zm2.77 0h2.768v2.769h-2.769v-2.77zm5.538 0h2.769v2.769h-2.77v-2.77zM6.538 42.307h2.77v2.769h-2.77v-2.77zm13.847 0h2.769v2.769h-2.77v-2.77zm2.769 0h2.77v2.769h-2.77v-2.77zm5.538 0h2.77v2.769h-2.77v-2.77zm5.539 0H37v2.769h-2.77v-2.77zm2.769 0h2.77v2.769H37v-2.77zm2.77 0h2.768v2.769H39.77v-2.77zm8.307 0h2.77v2.769h-2.77v-2.77zm2.77 0h2.768v2.769h-2.769v-2.77zm2.768 0h2.77v2.769h-2.77v-2.77zm2.77 0h2.769v2.769h-2.77v-2.77zm2.769 0h2.77v2.769h-2.77v-2.77zM1 45.077h2.77v2.77H1v-2.77zm2.77 0h2.768v2.77H3.77v-2.77zm5.538 0h2.769v2.77h-2.77v-2.77zm8.307 0h2.77v2.77h-2.77v-2.77zm2.77 0h2.769v2.77h-2.77v-2.77zm8.307 0h2.77v2.77h-2.77v-2.77zm8.308 0h2.77v2.77H37v-2.77zm8.308 0h2.769v2.77h-2.77v-2.77zm2.769 0h2.77v2.77h-2.77v-2.77zm2.77 0h2.768v2.77h-2.769v-2.77zm2.768 0h2.77v2.77h-2.77v-2.77zm2.77 0h2.769v2.77h-2.77v-2.77zm8.307 0h2.77v2.77h-2.77v-2.77zm-41.538 2.77h2.77v2.768h-2.77v-2.769zm8.308 0h2.769v2.768h-2.77v-2.769zm5.538 0h2.77v2.768H37v-2.769zm8.308 0h2.769v2.768h-2.77v-2.769zm11.077 0h2.769v2.768h-2.77v-2.769zm11.077 0h2.769v2.768h-2.77v-2.769zM1 50.614h2.77v2.77H1v-2.77zm2.77 0h2.768v2.77H3.77v-2.77zm2.768 0h2.77v2.77h-2.77v-2.77zm2.77 0h2.769v2.77h-2.77v-2.77zm2.769 0h2.77v2.77h-2.77v-2.77zm2.77 0h2.768v2.77h-2.769v-2.77zm2.768 0h2.77v2.77h-2.77v-2.77zm13.847 0h2.769v2.77h-2.77v-2.77zm5.538 0h2.77v2.77H37v-2.77zm8.308 0h2.769v2.77h-2.77v-2.77zm5.538 0h2.77v2.77h-2.77v-2.77zm5.539 0h2.769v2.77h-2.77v-2.77zm11.077 0h2.769v2.77h-2.77v-2.77zM1 53.385h2.77v2.769H1v-2.77zm16.615 0h2.77v2.769h-2.77v-2.77zm8.308 0h2.77v2.769h-2.77v-2.77zm16.616 0h2.769v2.769h-2.77v-2.77zm2.769 0h2.769v2.769h-2.77v-2.77zm11.077 0h2.769v2.769h-2.77v-2.77zm8.307 0h2.77v2.769h-2.77v-2.77zm2.77 0h2.769v2.769h-2.77v-2.77zM1 56.154h2.77v2.77H1v-2.77zm5.538 0h2.77v2.77h-2.77v-2.77zm2.77 0h2.769v2.77h-2.77v-2.77zm2.769 0h2.77v2.77h-2.77v-2.77zm5.538 0h2.77v2.77h-2.77v-2.77zm11.077 0h2.77v2.77h-2.77v-2.77zm5.539 0H37v2.77h-2.77v-2.77zm2.769 0h2.77v2.77H37v-2.77zm5.538 0h2.77v2.77h-2.77v-2.77zm2.77 0h2.769v2.77h-2.77v-2.77zm2.769 0h2.77v2.77h-2.77v-2.77zm2.77 0h2.768v2.77h-2.769v-2.77zm2.768 0h2.77v2.77h-2.77v-2.77zm2.77 0h2.769v2.77h-2.77v-2.77zm8.307 0h2.77v2.77h-2.77v-2.77zm2.77 0h2.769v2.77h-2.77v-2.77zM1 58.924h2.77v2.768H1v-2.769zm5.538 0h2.77v2.768h-2.77v-2.769zm2.77 0h2.769v2.768h-2.77v-2.769zm2.769 0h2.77v2.768h-2.77v-2.769zm5.538 0h2.77v2.768h-2.77v-2.769zm8.308 0h2.77v2.768h-2.77v-2.769zm2.77 0h2.768v2.768h-2.769v-2.769zm8.307 0h2.77v2.768H37v-2.769zm2.77 0h2.768v2.768H39.77v-2.769zm2.768 0h2.77v2.768h-2.77v-2.769zm13.847 0h2.769v2.768h-2.77v-2.769zm5.538 0h2.77v2.768h-2.77v-2.769zm2.77 0h2.769v2.768h-2.77v-2.769zM1 61.691h2.77v2.77H1v-2.77zm5.538 0h2.77v2.77h-2.77v-2.77zm2.77 0h2.769v2.77h-2.77v-2.77zm2.769 0h2.77v2.77h-2.77v-2.77zm5.538 0h2.77v2.77h-2.77v-2.77zm5.539 0h2.77v2.77h-2.77v-2.77zm2.77 0h2.768v2.77h-2.769v-2.77zm2.768 0h2.77v2.77h-2.77v-2.77zm5.539 0H37v2.77h-2.77v-2.77zm5.538 0h2.77v2.77h-2.77v-2.77zm5.539 0h2.769v2.77h-2.77v-2.77zm2.769 0h2.77v2.77h-2.77v-2.77zm5.538 0h2.77v2.77h-2.77v-2.77zm2.77 0h2.769v2.77h-2.77v-2.77zm2.769 0h2.77v2.77h-2.77v-2.77zm5.538 0h2.77v2.77h-2.77v-2.77zm2.77 0h2.769v2.77h-2.77v-2.77zM1 64.462h2.77v2.769H1v-2.77zm16.615 0h2.77v2.769h-2.77v-2.77zm5.539 0h2.77v2.769h-2.77v-2.77zm2.77 0h2.768v2.769h-2.769v-2.77zm2.768 0h2.77v2.769h-2.77v-2.77zm8.308 0h2.77v2.769H37v-2.77zm8.308 0h2.769v2.769h-2.77v-2.77zm2.769 0h2.77v2.769h-2.77v-2.77zm2.77 0h2.768v2.769h-2.769v-2.77zm2.768 0h2.77v2.769h-2.77v-2.77zm2.77 0h2.769v2.769h-2.77v-2.77zM1 67.23h2.77V70H1v-2.77zm2.77 0h2.768V70H3.77v-2.77zm2.768 0h2.77V70h-2.77v-2.77zm2.77 0h2.769V70h-2.77v-2.77zm2.769 0h2.77V70h-2.77v-2.77zm2.77 0h2.768V70h-2.769v-2.77zm2.768 0h2.77V70h-2.77v-2.77zm11.077 0h2.77V70h-2.77v-2.77zm2.77 0h2.769V70h-2.77v-2.77zm5.538 0h2.77V70H37v-2.77zm8.308 0h2.769V70h-2.77v-2.77zm5.538 0h2.77V70h-2.77v-2.77zm8.308 0h2.77V70h-2.77v-2.77zm8.307 0h2.77V70h-2.77v-2.77z" fill="#000"/><path d="M3.77.77H1v2.769M3.77.769v2.77m0-2.77h2.768M3.77 3.54H1m2.77 0h2.768m-2.769 0v2.769M1 3.538v2.77M6.538.769v2.77m0-2.77h2.77m-2.77 2.77h2.77m0-2.77v2.77m0-2.77h2.769m-2.77 2.77h2.77m0-2.77v2.77m0-2.77h2.77m-2.77 2.77h2.77m0-2.77v2.77m0-2.77h2.768m-2.769 2.77h2.77m0-2.77v2.77m0-2.77h2.769v2.77m-2.77 0h2.77m-2.77 0v2.769m2.77-2.77v2.77m11.076-2.77V.77h-2.769v2.77m2.77 0h-2.77m2.77 0v2.769m0-2.77h2.769m-5.539 0h-2.769v2.77h2.77m0-2.77v2.77M37 .769h-2.77v2.77M37 .769v2.77m0-2.77h2.77v2.77m-2.77 0h-2.77m2.77 0h2.77m-2.77 0v2.769m-2.77-2.77v2.77m5.54-2.77h2.768v2.77H39.77m0-2.77v2.77M53.615.769h-2.769v2.77m2.77-2.77v2.77m0-2.77h2.769m-2.77 2.77h-2.769m2.77 0h2.769m-2.77 0v2.769m-2.769-2.77v2.77M56.385.769v2.77m0-2.77h2.769m-2.77 2.77h2.77m0-2.77v2.77m0-2.77h2.77m-2.77 2.77h2.77m0-2.77v2.77m0-2.77h2.768m-2.769 2.77h2.77m0-2.77v2.77m0-2.77h2.769m-2.77 2.77h2.77m0-2.77v2.77m0-2.77h2.769v2.77m-2.77 0h2.77m-2.77 0v2.769m2.77-2.77v2.77m-66.462 0H1m2.77 0v2.769M1 6.307v2.77m19.385-2.77h-2.77m2.77 0v2.77m-2.77-2.77v2.77m11.077-2.77h2.77m-2.77 0v2.77m2.77-2.77h2.769m-2.77 0v2.77h-2.769m5.539-2.77H37m0 0h2.77m-2.77 0v2.77m2.77-2.77v2.77m13.845-2.77h-2.769m2.77 0v2.77m-2.77-2.77v2.77m19.385-2.77h-2.77m2.77 0v2.77m-2.77-2.77v2.77m-63.692 0H1m2.77 0v2.77M1 9.076v2.77m8.308-5.54h-2.77v2.77m2.77-2.77v2.77m0-2.77h2.769m-2.77 2.77H6.539m2.77 0h2.769m-2.77 0v2.77m-2.769-2.77v2.77m5.539-5.54v2.77m0-2.77h2.77v2.77m-2.77 0h2.77m-2.77 0v2.77m2.77-2.77v2.77m5.538-2.77h-2.77m2.77 0v2.77m-2.77-2.77v2.77m11.077-2.77h-2.769m2.77 0v2.77m11.076-2.77H37m2.77 0v2.77M37 9.076v2.77h2.77m8.307-2.77v-2.77h-2.77v2.77m2.77 0h-2.77m2.77 0v2.77h-2.77v-2.77m8.308 0h-2.769m2.77 0v2.77m-2.77-2.77v2.77m8.308-5.54h-2.77v2.77m2.77-2.77v2.77m0-2.77h2.77m-2.77 2.77h-2.77m2.77 0h2.77m-2.77 0v2.77m-2.77-2.77v2.77m5.54-5.54v2.77m0-2.77h2.768v2.77m-2.769 0h2.77m-2.77 0v2.77m2.77-2.77v2.77m5.538-2.77h-2.77m2.77 0v2.77m-2.77-2.77v2.77m-63.692 0H1m2.77 0v2.768M1 11.846v2.77m8.308-2.77h-2.77m2.77 0h2.769m-2.77 0v2.77m-2.769-2.77v2.77h2.77m2.769-2.77h2.77m-2.77 0v2.77m2.77-2.77v2.77h-2.77m8.308-2.77h-2.77m2.77 0v2.77m-2.77-2.77v2.77m8.308-5.539h-2.77v2.77h2.77m0-2.77v2.77m0 0h2.77m-2.77 0v2.768m2.77-2.769v2.77m11.076-2.77h2.77v2.77m-2.77-2.77v2.77m13.846-2.77h-2.769m2.77 0v2.77m-2.77-2.77v2.77m8.308-2.77h-2.77m2.77 0h2.77m-2.77 0v2.77m-2.77-2.77v2.77h2.77m2.77-2.77h2.768m-2.769 0v2.77m2.77-2.77v2.77h-2.77m8.308-2.77h-2.77m2.77 0v2.77m-2.77-2.77v2.77m-63.692 0H1m2.77 0v2.769M1 14.615v2.77m8.308-2.77h2.769m8.308 0h-2.77m2.77 0v2.77m-2.77-2.77v2.77m11.077-2.77h-2.769m2.77 0h2.768m-2.769 0v2.77m-2.769-2.77h-2.77v2.77m2.77-2.77v2.77m8.308-2.77v-2.769h-2.77v2.77m2.77 0h-2.77m2.77 0v2.769m0-2.77H37m-5.538 0v2.77m11.076-2.77H39.77m2.77 0v2.77m-2.77-2.77H37m2.77 0v2.77m13.845-2.77h-2.769m2.77 0v2.77m-2.77-2.77v2.77m8.308-2.77h2.77m8.307 0h-2.77m2.77 0v2.77m-2.77-2.77v2.77m-63.692 0H1m2.77 0v2.769m0-2.77h2.768m-5.538 0v2.77h2.77m16.615-2.77h-2.77m2.77 0v2.77h-2.77m0-2.77h-2.769m2.77 0v2.77m8.307-2.77h-2.77m2.77 0v2.77m-2.77-2.77v2.77m8.309-2.77h-2.77m2.77 0h2.769m-2.77 0v2.77m-2.769-2.77v2.77h2.77m2.769-2.77H37m-2.77 0v2.77M37 14.615v2.77m0 0h2.77m-2.77 0v2.769m2.77-2.77h2.768m-2.769 0v2.77m2.77-2.77v2.77m11.076-2.77h-2.769m2.77 0v2.77m0-2.77h2.769m-5.539 0v2.77h2.77m16.615-2.77h-2.77m2.77 0v2.77h-2.77m0-2.77h-2.769m2.77 0v2.77m-63.693 0h2.77m0-2.77v2.77m0-2.77h2.769m-2.77 2.77h2.77m0-2.77v2.77m0-2.77h2.769m-2.77 2.77h2.77m0-2.77v2.77m0-2.77h2.77m-2.77 2.77h2.77m0-2.77v2.77m0 0h2.768m8.308 0h-2.77m2.77 0v2.77m-2.77-2.77v2.77h2.77m5.539-2.77h2.769m-2.77 0v2.77M37 20.153h-2.77m2.77 0v2.77m-2.77-2.77v2.77m8.309-2.77h-2.77m2.77 0v2.77m0-2.77h2.769m-5.539 0v2.77m8.308-2.77v-2.77h-2.77v2.77m2.77 0h-2.77m2.77 0v2.77m-2.77-2.77v2.77m8.308-2.77h2.77m0-2.77v2.77m0-2.77h2.769m-2.77 2.77h2.77m0-2.77v2.77m0-2.77h2.77m-2.77 2.77h2.77m0-2.77v2.77m0-2.77h2.768m-2.769 2.77h2.77m0-2.77v2.77m0 0h2.769m-41.539 2.77h2.77m-2.77 0v2.768m8.308-2.769h-2.77m2.77 0H37m-2.77 0v2.77h-2.768m0-2.77h-2.77m2.77 0v2.77M37 22.922h2.77m-2.77 0v2.77m5.538-2.77H39.77m2.77 0h2.769m-2.77 0v2.77m-2.769-2.77v2.77m5.539-2.77h2.769m-2.77 0v2.77m2.77-2.77v2.77m-41.539-2.77H3.77v2.77h2.77m0-2.77v2.77m0-2.77h2.769v2.77h-2.77m22.154-2.77v2.77m0 0h-2.769m2.77 0h2.768m-2.769 0v2.769m-2.769-2.77h-2.77v2.77m2.77-2.77v2.77h-2.77m8.309-2.77v2.77m8.307-2.77H37m2.77 0h2.768m-2.769 0v2.77H37v-2.77m5.538 0h2.77m-2.77 0v2.77m5.539-2.77h-2.77m2.77 0h2.77m-2.77 0v2.77m-2.77-2.77v2.77m8.308-5.539h-2.769v2.77m2.77-2.77v2.77m0-2.77h2.769v2.77m-2.77 0h-2.769m2.77 0h2.769m-2.77 0v2.769m-2.769-2.77v2.77m5.539-2.77v2.77m5.538-2.77v-2.769h-2.77v2.77m2.77 0h-2.77m2.77 0v2.769m-2.77-2.77v2.77m-36 0h-2.768m2.769 0v2.769m8.308-2.77h-2.77m2.77 0v2.77m-2.77-2.77v2.77m16.616-2.77h-2.77m2.77 0v2.77m0-2.77h2.769m-5.538 0v2.77m8.307-2.77h-2.77m2.77 0h2.77m-2.77 0v2.77m-2.77-2.77v2.77m5.54-2.77h2.769m-2.77 0v2.77m2.77-2.77v2.77m5.538-2.77h-2.77m2.77 0v2.77m0-2.77h2.77m-5.54 0v2.77m8.309-5.539h-2.77v2.77m2.77-2.77v2.77m0-2.77h2.769v2.77m-2.77 0h-2.769m2.77 0h2.769m-2.77 0v2.769h2.77v-2.77m-5.539 0v2.77h-2.769m-55.385 0v-2.77H3.77v2.77m2.77 0H3.77m2.77 0V34m0-2.77h2.769V34M3.77 31.23V34m16.616-5.54h-2.77v2.77h2.77m0-2.77v2.77m0 0h2.769m-2.77 0V34m2.77-2.77V34m0-2.77h2.77m5.538 0h-2.77m2.77 0V34h-2.77m0-2.77h-2.769m2.77 0V34m16.615-2.77h-2.77m2.77 0h2.769m-2.77 0V34m-2.769-2.77V34m5.539-2.77h2.77m0 0h2.768m0 0h2.77m-2.77 0V34m2.77-2.77V34m0-2.77h2.769m2.77 0h-2.77m2.77 0V34h-2.77m0-2.77V34M6.538 34H3.77m2.77 0h2.769m-2.77 0v2.768H3.77m0-2.769H1v2.77h2.77m0-2.77v2.77M9.307 34h2.769v2.77M9.307 34v2.77M23.155 34h-2.77m2.77 0h2.77m-2.77 0v2.77M20.384 34h-2.769v2.77h2.77V34zm5.54-2.77V34m0 0h2.768m-2.769 0v2.77M39.77 34v-2.77H37V34m2.77 0H37m2.77 0v2.77M37 34v2.77M45.308 34h-2.77m2.77 0v2.77M42.538 34v2.77M56.386 34h-2.77m2.77 0h2.769m-2.77 0v2.77M53.616 34h-2.769v2.77m2.77-2.77v2.77m-41.54 0H9.309m2.769 0v2.768m-2.77-2.769v2.77h2.77m13.846-2.77h-2.77m2.77 0v2.77m-2.77-2.77v2.77m16.616-2.77H37m2.77 0v2.77M37 36.768v2.77m8.308-2.77h-2.77m2.77 0v2.77m0-2.77h2.769v2.77h-2.77m-2.769-2.77v2.77m11.077-2.77h-2.769m2.77 0h2.769m-2.77 0v2.77m-2.769-2.77v2.77h2.77m2.769-2.77v2.77h-2.77m16.616-2.77V34h-2.77v2.77m2.77 0h-2.77m2.77 0v2.768m-2.77-2.769h-2.769v2.77m2.77-2.77v2.77m-55.385 0h2.77m-2.77 0v2.769h2.77m11.076-2.77h-2.77m2.77 0v2.77m0-2.77h2.77m-5.54 0v2.77m8.309-2.77V36.77h-2.77v2.77m2.77 0h-2.77m2.77 0h2.769m-2.77 0v2.769m-2.769-2.77v2.77m11.077-2.77H37m2.77 0v2.77m0-2.77h2.768m-5.538 0h-2.77m2.77 0v2.77m8.308-2.77h-2.77m2.77 0v2.77h-2.77m0-2.77v2.77m24.924-2.77h-2.77m2.77 0h2.769m-2.77 0v2.77h2.77v-2.77m-5.539 0h-2.769m2.77 0v2.77h-2.77M3.77 39.538H1v2.77h2.77m0-2.77v2.77m0-2.77h2.768v2.77m-2.769 0h2.77m0 0h2.769v2.769m-2.77-2.77v2.77m8.308-5.538v2.769m0-2.77h2.77m-2.77 2.77h2.77m0-2.77v2.77m0-2.77h2.769v2.77m-2.77 0h2.77m0 0h2.769m-2.77 0v2.769m5.54-2.77h-2.77m2.77 0h2.768m-2.769 0v2.77h-2.77m0-2.77v2.77m5.54-2.77h2.768m-2.769 0v2.77m5.539-5.538v2.769m0 0h-2.77m2.77 0H37m-2.77 0v2.769H37m-5.538-2.77v2.77M37 42.307h2.77m-2.77 0v2.77m2.77-2.77h2.768m-2.769 0v2.77m2.77-2.77v2.77h-2.77m22.154-5.538h-2.77v2.769m2.77-2.77v2.77m0 0h-2.77m2.77 0v2.769h-2.77m0-2.77h-2.768m2.769 0v2.77m-49.846 0h-2.77m2.77 0h2.769v2.77h-2.77v-2.77zm-2.77 0H3.77m2.77 0v2.77H3.77m19.385-2.77h-2.77m2.77 0v2.77m-2.77-2.77h-2.769v2.77h2.77m0-2.77v2.77m11.076-2.77h-2.769m2.77 0v2.77m-2.77-2.77v2.77h2.77M37 45.076h2.77m-2.77 0v2.77m2.77-2.77v2.77m11.076-5.54h-2.77v2.77m2.77-2.77v2.77m0-2.77h2.77m-2.77 2.77h-2.77m2.77 0h2.77m-2.77 0v2.77m-2.77-2.77h-2.768v2.77m2.769-2.77v2.77m5.538-5.54v2.77m0-2.77h2.77m-2.77 2.77h2.77m-2.77 0v2.77m2.77-5.54v2.77m0 0h2.769m-2.77 0v2.77m2.77-2.77v2.77m-55.385-2.77H1v2.77h2.77m0-2.77v2.77m16.615 0h2.769m0 0h2.77v2.768h-2.77v-2.769zm8.308 0h2.769v2.768m-2.77-2.769v2.77m8.308-2.77H37m2.77 0v2.77M37 47.845v2.77m11.077-2.77h-2.77m2.77 0h2.77m-2.77 0v2.77m-2.77-2.77v2.77m5.54-2.77h2.768m0 0h2.77m0 0h2.769m-2.77 0v2.77m2.77-2.77v2.77m8.307-2.77v-2.769h-2.769v2.77h2.77zm0 0h2.77v2.77m-2.77-2.77v2.77m-33.23 0h-2.77m2.77 0v2.769h-2.77v-2.77m8.308 0H37m2.77 0v2.77H37v-2.77m11.077 0h-2.77m2.77 0v2.77m-2.77-2.77v2.77m13.847-2.77h-2.77m2.77 0v2.77m-2.77-2.77v2.77m13.847-2.77h-2.77m2.77 0v2.77m-2.77-2.77v2.77M3.77 50.615H1v2.77m2.77-2.77v2.77m0-2.77h2.768m-2.769 2.77H1m2.77 0h2.768m-2.769 0v2.769M1 53.384v2.77m5.538-5.539v2.77m0-2.77h2.77m-2.77 2.77h2.77m0-2.77v2.77m0-2.77h2.769m-2.77 2.77h2.77m0-2.77v2.77m0-2.77h2.77m-2.77 2.77h2.77m0-2.77v2.77m0-2.77h2.768m-2.769 2.77h2.77m0-2.77v2.77m0-2.77h2.769v2.77m-2.77 0h2.77m-2.77 0v2.769m2.77-2.77v2.77m27.692-2.77h-2.77m2.77 0v2.77m-2.77-2.77h-2.769v2.77m2.77-2.77v2.77m13.846-2.77h-2.77m2.77 0v2.77m-2.77-2.77v2.77m13.847-2.77h-2.77m2.77 0v2.77m-2.77-2.77h-2.769v2.77m2.77-2.77v2.77m-63.693 0H1m2.77 0v2.77M1 56.153v2.77m19.385-2.77h-2.77m2.77 0v2.77m-2.77-2.77v2.77m11.077-2.77v-2.77h-2.769v2.77h2.77zm0 0h2.77v2.77m-2.77-2.77v2.77m16.616-2.77h-2.77m2.77 0h2.769m-2.77 0v2.77m-2.769-2.77v2.77m5.539-2.77v2.77m0-2.77h2.77m8.307 0h-2.77m2.77 0v2.77m-2.77-2.77h-2.769m2.77 0v2.77m11.077-2.77h-2.77m2.77 0h2.769m-2.77 0v2.77m-2.769-2.77v2.77m5.539-2.77v2.77h-2.77m-63.692 0H1m2.77 0v2.768M1 58.923v2.77m8.308-5.54h-2.77v2.77m2.77-2.77v2.77m0-2.77h2.769m-2.77 2.77H6.539m2.77 0h2.769m-2.77 0v2.77m-2.769-2.77v2.77m5.539-5.54v2.77m0-2.77h2.77v2.77m-2.77 0h2.77m-2.77 0v2.77m2.77-2.77v2.77m5.538-2.77h-2.77m2.77 0v2.77m-2.77-2.77v2.77m13.847-2.77h-2.77m2.77 0v2.77m-2.77-2.77h-2.769v2.77m2.77-2.77v2.77M37 56.152h-2.77v2.77H37m0-2.77v2.77m0-2.77h2.77v2.77m-2.77 0h2.77m-2.77 0v2.77m2.77-2.77v2.77m0-2.77h2.768m2.77 0h-2.77m2.77 0h2.769m-2.77 0v2.77m-2.769-2.77v2.77m5.539-2.77h2.77m0-2.77v2.77m0-2.77h2.768m-2.769 2.77h2.77m0-2.77v2.77m0 0h2.769m0 0h2.769m-2.77 0v2.77m2.77-2.77v2.77m8.307-2.77h-2.769m2.77 0v2.77m-2.77-2.77h-2.769v2.77m2.77-2.77v2.77m-60.924 0H1m2.77 0v2.769M1 61.692v2.77m8.308-2.77h-2.77m2.77 0h2.769m-2.77 0v2.77m-2.769-2.77v2.77h2.77m2.769-2.77h2.77m-2.77 0v2.77m2.77-2.77v2.77h-2.77m8.308-2.77h-2.77m2.77 0v2.77m-2.77-2.77v2.77m11.077-2.77h-2.769m2.77 0h2.768m-2.769 0v2.77m-2.769-2.77h-2.77v2.77m2.77-2.77v2.77m5.539-2.77v2.77m8.307-2.77H37m2.77 0h2.768m-2.769 0v2.77M37 61.692h-2.77v2.77H37m0-2.77v2.77m5.538-2.77h2.77m-2.77 0v2.77H39.77m5.539-2.77h2.769m-2.77 0v2.77m13.847-2.77h-2.77m2.77 0v2.77m0-2.77h2.77m-5.54 0h-2.769v2.77m2.77-2.77v2.77m8.307-2.77h-2.769m2.77 0h2.769m-2.77 0v2.77h2.77m-5.539-2.77v2.77h-2.77m8.309-2.77v2.77m0-2.77h2.769v2.77h-2.77m-63.692 0H1m2.77 0v2.769M1 64.46v2.77m8.308-2.77h2.769m8.308 0h-2.77m2.77 0v2.77m-2.77-2.77v2.77m8.308-2.77h-2.77m2.77 0h2.77m-2.77 0v2.77m-2.77-2.77v2.77h2.77m2.77-2.77h2.768m-2.769 0v2.77m2.77-2.77v2.77M37 64.46h2.77m-2.77 0v2.77m2.77-2.77v2.77m8.307-5.539v2.77m0-2.77h2.77v2.77m-2.77 0h-2.77m2.77 0h2.77m-2.77 0v2.769m-2.77-2.77v2.77m5.54-2.77v2.77m0-2.77h2.768m2.77 0h-2.77m2.77 0h2.769m-2.77 0v2.77m-2.769-2.77v2.77m5.539-2.77v2.77m-55.385 0H1m2.77 0V70m0-2.77h2.768M1 67.23V70h2.77m16.615-2.77h-2.77m2.77 0V70h-2.77m0-2.77h-2.769m2.77 0V70m8.307-2.77h2.77m0 0h2.768m-2.769 0V70h2.77m0-2.77V70m0-2.77h2.769V70h-2.77m8.308-2.77H37m2.77 0V70H37v-2.77m11.077 0h-2.77m2.77 0h2.77m-2.77 0V70h-2.77v-2.77m5.54 0h2.768m-2.769 0V70h2.77v-2.77m0 0h2.769m0 0h2.769m0 0h2.77V70h-2.77v-2.77zM3.769 70h2.77m0-2.77V70m0-2.77h2.769M6.538 70h2.77m0-2.77V70m0-2.77h2.769M9.307 70h2.77m0-2.77V70m0-2.77h2.77M12.076 70h2.77m0-2.77V70m0 0h2.768m0-47.078h2.77v2.77h-2.77v-2.77zm33.231 27.692h2.77v2.77h-2.77v-2.77zM67.461 67.23h2.769V70h-2.77v-2.77z" stroke="#252644"/></svg>