<svg width="24" height="24" viewBox="0 0 24 24" fill="none" xmlns="http://www.w3.org/2000/svg">
<path d="M13.2 10.8H10.8V18H13.2V10.8Z" fill="#FF364E"/>
<path d="M12 0C5.37002 0 0 5.37003 0 12C0 18.63 5.37002 24 12 24C18.6299 24 24 18.63 24 12C24 5.36997 18.63 0 12 0ZM12 21.6C6.70798 21.6 2.39996 17.292 2.39996 12C2.39996 6.70799 6.70798 2.40002 12 2.40002C17.292 2.40002 21.6 6.70799 21.6 12C21.6 17.292 17.292 21.6 12 21.6Z" fill="#FF364E"/>
<path d="M13.2 6.00003H10.8V8.40005H13.2V6.00003Z" fill="#FF364E"/>
</svg>
