<svg width="22" height="26" viewBox="0 0 22 26" fill="none" xmlns="http://www.w3.org/2000/svg">
<path d="M18.997 7.73618L20.5777 6.18012L19.0223 4.64842L17.3313 6.31304C15.7866 5.23537 13.9839 4.57119 12.1 4.38556V2.16571H14.3V0H7.7V2.16571H9.9V4.38556C8.01608 4.57119 6.21344 5.23537 4.66868 6.31304L2.9777 4.64842L1.4223 6.18012L3.003 7.73618C1.52752 9.27405 0.541911 11.2037 0.167901 13.2868C-0.206108 15.3698 0.0478603 17.5151 0.898443 19.4577C1.74903 21.4003 3.15897 23.0551 4.95415 24.2178C6.74934 25.3804 8.85114 26 11 26C13.1489 26 15.2507 25.3804 17.0458 24.2178C18.841 23.0551 20.251 21.4003 21.1016 19.4577C21.9521 17.5151 22.2061 15.3698 21.8321 13.2868C21.4581 11.2037 20.4725 9.27405 18.997 7.73618ZM11 23.8228C9.25953 23.8228 7.55814 23.3147 6.11098 22.3628C4.66383 21.411 3.53592 20.058 2.86986 18.4751C2.20381 16.8922 2.02954 15.1503 2.36909 13.4699C2.70864 11.7895 3.54676 10.2459 4.77746 9.03441C6.00816 7.82289 7.57617 6.99784 9.28321 6.66358C10.9902 6.32932 12.7596 6.50087 14.3676 7.15654C15.9756 7.81221 17.35 8.92255 18.3169 10.3471C19.2839 11.7717 19.8 13.4466 19.8 15.16C19.7974 17.4567 18.8694 19.6586 17.2196 21.2827C15.5699 22.9067 13.3331 23.8202 11 23.8228Z" fill="#FF364E"/>
<path d="M11 8.66283V15.16H4.4C4.4 16.445 4.78709 17.7011 5.5123 18.7696C6.23752 19.838 7.2683 20.6708 8.47429 21.1625C9.68028 21.6543 11.0073 21.7829 12.2876 21.5322C13.5679 21.2815 14.7439 20.6628 15.6669 19.7541C16.5899 18.8455 17.2185 17.6878 17.4732 16.4275C17.7278 15.1672 17.5971 13.8608 17.0976 12.6736C16.5981 11.4864 15.7521 10.4717 14.6668 9.75779C13.5814 9.04388 12.3054 8.66283 11 8.66283Z" fill="#FF364E"/>
</svg>
