<svg width="45" height="45" viewBox="0 0 45 45" fill="none" xmlns="http://www.w3.org/2000/svg">
<circle cx="22.5" cy="22.5" r="21.5" stroke="#70719C" stroke-width="2"/>
<path d="M28.3532 21.2333C27.4326 20.4167 26.3969 19.7167 25.2462 19.1333C24.7859 18.9 23.1748 17.6167 23.7502 15.8667L22.7145 15.4C24.2105 12.95 26.2819 10.6167 28.6985 8.28333C26.7422 8.98333 25.016 10.0333 23.6351 11.9C24.4406 10.2667 25.7065 8.63333 27.0874 7C25.1311 8.4 23.52 9.91667 22.4843 12.0167L23.2899 9.1C22.2542 10.9667 21.4486 12.95 21.2185 14.8167L19.7225 14.1167L19.4923 14.35C20.8733 16.8 20.1828 18.0833 19.4923 18.55C18.1114 19.4833 16.2702 20.65 15.2345 21.7C13.3933 23.6833 12.8179 25.4333 13.0481 27.8833C13.2782 31.0333 15.4647 33.6 18.4567 34.5333C19.6074 35 20.8733 35 22.2542 35C24.4406 35 26.6271 34.4167 28.2382 33.0167C29.9643 31.6167 31 29.4 31 27.1833C30.8849 24.9667 29.9643 22.75 28.3532 21.2333ZM24.2105 31.6167C24.0954 32.0833 23.7502 32.6667 23.4049 33.1333C23.52 32.9 23.6351 32.55 23.7502 32.2C24.4406 29.8667 24.6708 28.8167 24.3256 26.25C24.3256 26.0167 24.2105 25.2 23.7502 24.2667C23.1748 22.8667 22.3693 21.5833 22.2542 21.35C22.024 20.8833 21.7939 19.0167 21.7939 17.7333C21.7939 18.7833 21.9089 20.8833 22.1391 21.5833C22.2542 21.8167 22.9446 22.9833 23.52 24.5C23.8653 25.4333 23.9803 26.3667 23.9803 26.7167C24.2105 27.8833 23.9803 29.8667 23.52 31.7333C23.4049 32.4333 23.0597 33.25 22.5994 33.8333C22.8296 33.4833 23.0597 33.0167 23.1748 32.4333C23.52 31.3833 23.6351 29.9833 23.6351 29.05C23.6351 28.5833 23.4049 27.4167 22.9446 26.3667C22.7145 25.7833 22.3693 25.2 22.1391 24.85C22.1391 24.3833 22.1391 23.5667 22.024 22.5167C22.024 23.5667 21.909 24.15 22.2542 24.85C22.3693 25.3167 22.9446 25.9 23.1748 26.4833C23.4049 27.3 23.6351 28.2333 23.6351 28.7C23.6351 29.2833 23.6351 30.45 23.2899 31.7333C23.0597 32.6667 22.7145 33.4833 22.024 33.95C22.1391 33.8333 22.3693 33.3667 22.4843 33.0167C22.5994 32.4333 22.5994 31.9667 22.7145 31.2667C22.7145 30.5667 22.7145 29.8667 22.5994 29.2833C22.3693 28.35 22.024 27.4167 21.909 26.7167C21.909 27.4167 22.2542 28.35 22.3693 29.2833C22.4843 29.9833 22.3693 30.6833 22.3693 31.2667C22.3693 31.9667 22.1391 33.25 21.7939 33.95C21.4486 33.8333 21.3336 33.6 21.2185 33.3667C20.9883 33.0167 20.7582 32.6667 20.6431 32.2C20.528 31.85 20.413 31.5 20.2979 31.15C20.1828 30.2167 20.413 29.2833 20.9883 28.5833C21.5637 27.7667 21.6788 27.7667 21.7939 26.8333C21.5637 27.65 21.3336 27.7667 20.7582 28.35C19.9526 29.2833 19.8376 30.3333 19.8376 31.2667C19.8376 31.6167 19.9526 32.0833 20.0677 32.4333C20.1828 32.9 20.413 33.25 20.528 33.6C20.8733 33.8333 20.9883 34.0667 21.2185 34.1833C20.528 33.95 19.8376 33.7167 19.3773 33.3667C18.3416 32.4333 17.3059 30.8 17.1908 29.4C17.0757 28.2333 18.1114 26.6 19.6074 25.7833C20.8733 25.0833 21.1034 24.2667 21.3336 22.8667C20.9883 24.0333 20.6431 24.9667 19.3773 25.55C17.6511 26.4833 16.8456 28 16.8456 29.5167C16.9607 31.3833 17.6511 32.6667 19.1471 33.7167C19.4923 33.95 19.9526 34.1833 20.413 34.4167C18.5717 33.95 18.3416 33.7167 17.7662 33.0167C17.7662 33.0167 17.6511 32.9 17.6511 32.7833C16.8456 31.85 15.8099 30.2167 15.4647 28.7C15.3496 28.2333 15.2345 27.65 15.3496 27.0667C16.04 24.6167 17.536 23.6833 18.917 22.6333C19.4923 22.4 19.8376 22.1667 20.1828 21.9333C20.9883 21.2333 21.2185 19.6 21.4486 18.6667C21.1034 19.8333 20.7582 21.35 20.0677 21.8167C19.7225 22.05 19.3773 22.2833 19.032 22.5167C17.421 23.45 15.925 24.5 15.2345 26.95C15.1194 27.65 15.2345 28.1167 15.3496 28.7C15.6948 30.2167 16.7305 31.85 17.6511 32.9L17.7662 33.0167C18.1114 33.4833 18.6868 33.8333 19.2622 34.0667C18.6868 33.95 18.2265 33.8333 17.7662 33.6C15.3496 32.4333 13.7385 29.8667 13.6234 27.8833C13.3933 23.6833 15.3496 22.5167 17.3059 20.8833C18.3416 20.0667 19.7225 19.6 20.6431 18.0833C20.7582 17.7333 20.8733 17.0333 20.6431 16.2167C20.528 15.9833 20.1828 15.05 20.0677 14.8167L22.3693 15.8667C22.3693 16.9167 22.2542 17.85 22.4843 18.6667C22.7145 19.6 23.8653 20.8833 24.3256 22.2833C25.1311 25.0833 24.9009 28.7 24.2105 31.6167Z" fill="#70719C"/>
</svg>
