<svg width="45" height="45" viewBox="0 0 45 45" fill="none" xmlns="http://www.w3.org/2000/svg">
<path d="M22.5054 31C26.3213 31 29 29.05 29 25.575C29 22.475 26.9783 21.2 23.3899 20.275C20.3321 19.5 19.574 19.125 19.574 17.975C19.574 17.075 20.3574 16.4 21.8484 16.4C23.3393 16.4 24.8809 17.05 26.4476 18.125L28.4693 15.225C26.6751 13.8 24.4765 13 21.8989 13C18.2852 13 15.7076 15.1 15.7076 18.275C15.7076 21.8 18.0072 22.775 21.5704 23.675C24.5271 24.425 25.1336 24.925 25.1336 25.9C25.1336 26.975 24.1733 27.6 22.5812 27.6C20.5596 27.6 18.8917 26.775 17.2996 25.475L15 28.2C17.1227 30.075 19.8267 31 22.5054 31Z" fill="#70719C"/>
<circle cx="22.5" cy="22.5" r="21.5" stroke="#70719C" stroke-width="2"/>
<rect x="6" y="8.15076" width="2" height="44" transform="rotate(-45 6 8.15076)" fill="#70719C"/>
</svg>
