<svg width="45" height="45" viewBox="0 0 45 45" fill="none" xmlns="http://www.w3.org/2000/svg">
<circle cx="22.5" cy="22.5" r="21.5" stroke="#70719C" stroke-width="2"/>
<mask id="path-2-outside-1" maskUnits="userSpaceOnUse" x="8" y="7" width="30" height="27" fill="black">
<rect fill="white" x="8" y="7" width="30" height="27"/>
<path d="M36.9813 19.1019C36.9561 18.8079 36.9058 18.519 36.8303 18.2404C36.8253 18.2249 36.8253 18.2146 36.8203 18.1991C36.4479 16.8681 35.5271 15.759 34.3396 15.1399C34.3145 15.1244 34.2893 15.109 34.2642 15.1038C33.6604 14.8046 32.9962 14.6292 32.2968 14.6137C31.9647 14.6085 31.6426 14.6343 31.3206 14.6962C31.5672 14.0359 31.6779 13.324 31.6326 12.6121C31.4867 10.208 29.6149 8.23731 27.2802 8.02064C26.8323 7.97936 26.3845 8 25.9518 8.08254C25.4184 8.18572 24.9052 8.42819 24.4272 8.79963L15.6066 15.6919C15.6016 15.6971 15.5966 15.6971 15.5915 15.7022C14.3336 16.5896 13.5084 18.0805 13.5084 19.7623C13.5084 21.1449 14.0669 22.3985 14.9676 23.291C14.5952 23.1981 14.2078 23.1465 13.8053 23.1465C11.1536 23.1465 9 25.3545 9 28.0733C9 30.7868 11.1536 33 13.8053 33C15.8733 33 17.6394 31.6535 18.3137 29.7757C18.9879 31.6587 20.754 33 22.8221 33C24.0498 33 25.1668 32.5254 26.0172 31.7464C26.0273 31.7361 26.0424 31.7309 26.0524 31.7206L36.0705 22.0374C36.5083 21.604 36.8001 21.0675 36.9108 20.4897C36.9964 20.0357 37.0215 19.5714 36.9813 19.1019ZM24.7844 9.28456C25.187 8.96987 25.6197 8.76352 26.0625 8.68097C26.4449 8.60875 26.8374 8.58811 27.2298 8.62423C29.2777 8.80995 30.9181 10.5433 31.0489 12.6482C31.0942 13.4168 30.9432 14.1752 30.6162 14.8562L30.5155 14.949C30.5105 14.9542 30.5055 14.9542 30.5055 14.9593L29.7004 15.7229L22.4598 22.2489C22.8774 21.5215 23.1189 20.6702 23.1189 19.7674C23.1189 18.6067 22.7265 17.544 22.0724 16.6979L25.8562 13.4117C25.982 13.3033 25.9971 13.1125 25.8914 12.9835C25.7857 12.8545 25.5996 12.839 25.4738 12.9474L21.6748 16.2439C20.8094 15.3721 19.6219 14.8355 18.3137 14.8355C18.0722 14.8355 17.8407 14.8562 17.6092 14.8871L24.7844 9.28456ZM14.0971 19.7623C14.0971 17.3789 15.989 15.4443 18.3086 15.4443C20.6333 15.4443 22.5202 17.384 22.5202 19.7623C22.5202 22.1405 20.6283 24.0803 18.3086 24.0803C15.989 24.0854 14.0971 22.1457 14.0971 19.7623ZM18.3137 24.689C18.7162 24.689 19.1037 24.6374 19.476 24.5446C18.9628 25.0553 18.5653 25.6795 18.3137 26.376C18.0621 25.6795 17.6596 25.0553 17.1514 24.5446C17.5237 24.6374 17.9111 24.689 18.3137 24.689ZM13.8053 32.3912C11.4806 32.3912 9.59374 30.4515 9.59374 28.0733C9.59374 25.695 11.4857 23.7553 13.8053 23.7553C16.1299 23.7553 18.0168 25.695 18.0168 28.0733C18.0168 30.4515 16.1249 32.3912 13.8053 32.3912ZM18.6055 28.0733C18.6055 25.6898 20.4974 23.7553 22.817 23.7553C25.1417 23.7553 27.0286 25.695 27.0286 28.0733C27.0286 30.4515 25.1367 32.3912 22.817 32.3912C20.4974 32.3912 18.6055 30.4567 18.6055 28.0733ZM36.3322 20.371C36.2466 20.825 36.0152 21.2532 35.6579 21.604L27.3909 29.5951C27.5418 29.1154 27.6273 28.6046 27.6273 28.0733C27.6273 27.1808 27.3909 26.3399 26.9833 25.6125L29.1469 23.6779C29.2677 23.5695 29.2828 23.3787 29.1771 23.2497C29.0714 23.1259 28.8853 23.1104 28.7595 23.2187L26.6562 25.1017C25.7807 23.9152 24.3869 23.1414 22.8271 23.1414C22.6611 23.1414 22.495 23.1517 22.329 23.1671L30.1029 16.1665L30.8728 15.434C31.3307 15.2792 31.8087 15.2018 32.2968 15.2121C32.7647 15.2225 33.2176 15.3153 33.6402 15.4752L27.6777 20.9901C27.5569 21.1036 27.5468 21.2945 27.6575 21.4183C27.7179 21.4853 27.7984 21.5163 27.8789 21.5163C27.9494 21.5163 28.0198 21.4905 28.0752 21.4389L34.2189 15.759C35.1497 16.2852 35.8743 17.1622 36.2114 18.2095L32.9509 21.3099C32.8301 21.4234 32.8251 21.6143 32.9358 21.7381C32.9962 21.8 33.0716 21.8362 33.1522 21.8362C33.2226 21.8362 33.2981 21.8104 33.3534 21.7536L36.3674 18.8853C36.3825 18.973 36.3926 19.0607 36.3976 19.1535C36.4278 19.5662 36.4077 19.9738 36.3322 20.371Z"/>
<path d="M25.0964 17.1674C25.1568 17.2293 25.2323 17.2654 25.3128 17.2654C25.3832 17.2654 25.4587 17.2396 25.514 17.1828L29.9218 12.9783C30.0426 12.8648 30.0476 12.674 29.9369 12.5501C29.8262 12.4263 29.64 12.4212 29.5193 12.5347L25.1115 16.7392C24.9907 16.8527 24.9857 17.0435 25.0964 17.1674Z"/>
<path d="M18.3137 21.7742C19.3955 21.7742 20.276 20.8714 20.276 19.7623C20.276 18.6531 19.3955 17.7503 18.3137 17.7503C17.2319 17.7503 16.3513 18.6531 16.3513 19.7623C16.3513 20.8714 17.2319 21.7742 18.3137 21.7742ZM18.3137 18.3591C19.0684 18.3591 19.6823 18.9884 19.6823 19.7623C19.6823 20.5361 19.0684 21.1655 18.3137 21.1655C17.5589 21.1655 16.9451 20.5361 16.9451 19.7623C16.94 18.9884 17.5539 18.3591 18.3137 18.3591Z"/>
<path d="M22.8221 26.0613C21.7403 26.0613 20.8597 26.9641 20.8597 28.0733C20.8597 29.1824 21.7403 30.0852 22.8221 30.0852C23.9039 30.0852 24.7844 29.1824 24.7844 28.0733C24.7794 26.9641 23.8989 26.0613 22.8221 26.0613ZM22.8221 29.4765C22.0673 29.4765 21.4535 28.8471 21.4535 28.0733C21.4535 27.2994 22.0673 26.67 22.8221 26.67C23.5768 26.67 24.1907 27.2994 24.1907 28.0733C24.1907 28.8471 23.5768 29.4765 22.8221 29.4765Z"/>
<path d="M13.8053 26.0613C12.7235 26.0613 11.8429 26.9641 11.8429 28.0733C11.8429 29.1824 12.7235 30.0852 13.8053 30.0852C14.8871 30.0852 15.7676 29.1824 15.7676 28.0733C15.7626 26.9641 14.8821 26.0613 13.8053 26.0613ZM13.8053 29.4765C13.0505 29.4765 12.4367 28.8471 12.4367 28.0733C12.4367 27.2994 13.0505 26.67 13.8053 26.67C14.56 26.67 15.1739 27.2994 15.1739 28.0733C15.1739 28.8471 14.56 29.4765 13.8053 29.4765Z"/>
</mask>
<path d="M36.9813 19.1019C36.9561 18.8079 36.9058 18.519 36.8303 18.2404C36.8253 18.2249 36.8253 18.2146 36.8203 18.1991C36.4479 16.8681 35.5271 15.759 34.3396 15.1399C34.3145 15.1244 34.2893 15.109 34.2642 15.1038C33.6604 14.8046 32.9962 14.6292 32.2968 14.6137C31.9647 14.6085 31.6426 14.6343 31.3206 14.6962C31.5672 14.0359 31.6779 13.324 31.6326 12.6121C31.4867 10.208 29.6149 8.23731 27.2802 8.02064C26.8323 7.97936 26.3845 8 25.9518 8.08254C25.4184 8.18572 24.9052 8.42819 24.4272 8.79963L15.6066 15.6919C15.6016 15.6971 15.5966 15.6971 15.5915 15.7022C14.3336 16.5896 13.5084 18.0805 13.5084 19.7623C13.5084 21.1449 14.0669 22.3985 14.9676 23.291C14.5952 23.1981 14.2078 23.1465 13.8053 23.1465C11.1536 23.1465 9 25.3545 9 28.0733C9 30.7868 11.1536 33 13.8053 33C15.8733 33 17.6394 31.6535 18.3137 29.7757C18.9879 31.6587 20.754 33 22.8221 33C24.0498 33 25.1668 32.5254 26.0172 31.7464C26.0273 31.7361 26.0424 31.7309 26.0524 31.7206L36.0705 22.0374C36.5083 21.604 36.8001 21.0675 36.9108 20.4897C36.9964 20.0357 37.0215 19.5714 36.9813 19.1019ZM24.7844 9.28456C25.187 8.96987 25.6197 8.76352 26.0625 8.68097C26.4449 8.60875 26.8374 8.58811 27.2298 8.62423C29.2777 8.80995 30.9181 10.5433 31.0489 12.6482C31.0942 13.4168 30.9432 14.1752 30.6162 14.8562L30.5155 14.949C30.5105 14.9542 30.5055 14.9542 30.5055 14.9593L29.7004 15.7229L22.4598 22.2489C22.8774 21.5215 23.1189 20.6702 23.1189 19.7674C23.1189 18.6067 22.7265 17.544 22.0724 16.6979L25.8562 13.4117C25.982 13.3033 25.9971 13.1125 25.8914 12.9835C25.7857 12.8545 25.5996 12.839 25.4738 12.9474L21.6748 16.2439C20.8094 15.3721 19.6219 14.8355 18.3137 14.8355C18.0722 14.8355 17.8407 14.8562 17.6092 14.8871L24.7844 9.28456ZM14.0971 19.7623C14.0971 17.3789 15.989 15.4443 18.3086 15.4443C20.6333 15.4443 22.5202 17.384 22.5202 19.7623C22.5202 22.1405 20.6283 24.0803 18.3086 24.0803C15.989 24.0854 14.0971 22.1457 14.0971 19.7623ZM18.3137 24.689C18.7162 24.689 19.1037 24.6374 19.476 24.5446C18.9628 25.0553 18.5653 25.6795 18.3137 26.376C18.0621 25.6795 17.6596 25.0553 17.1514 24.5446C17.5237 24.6374 17.9111 24.689 18.3137 24.689ZM13.8053 32.3912C11.4806 32.3912 9.59374 30.4515 9.59374 28.0733C9.59374 25.695 11.4857 23.7553 13.8053 23.7553C16.1299 23.7553 18.0168 25.695 18.0168 28.0733C18.0168 30.4515 16.1249 32.3912 13.8053 32.3912ZM18.6055 28.0733C18.6055 25.6898 20.4974 23.7553 22.817 23.7553C25.1417 23.7553 27.0286 25.695 27.0286 28.0733C27.0286 30.4515 25.1367 32.3912 22.817 32.3912C20.4974 32.3912 18.6055 30.4567 18.6055 28.0733ZM36.3322 20.371C36.2466 20.825 36.0152 21.2532 35.6579 21.604L27.3909 29.5951C27.5418 29.1154 27.6273 28.6046 27.6273 28.0733C27.6273 27.1808 27.3909 26.3399 26.9833 25.6125L29.1469 23.6779C29.2677 23.5695 29.2828 23.3787 29.1771 23.2497C29.0714 23.1259 28.8853 23.1104 28.7595 23.2187L26.6562 25.1017C25.7807 23.9152 24.3869 23.1414 22.8271 23.1414C22.6611 23.1414 22.495 23.1517 22.329 23.1671L30.1029 16.1665L30.8728 15.434C31.3307 15.2792 31.8087 15.2018 32.2968 15.2121C32.7647 15.2225 33.2176 15.3153 33.6402 15.4752L27.6777 20.9901C27.5569 21.1036 27.5468 21.2945 27.6575 21.4183C27.7179 21.4853 27.7984 21.5163 27.8789 21.5163C27.9494 21.5163 28.0198 21.4905 28.0752 21.4389L34.2189 15.759C35.1497 16.2852 35.8743 17.1622 36.2114 18.2095L32.9509 21.3099C32.8301 21.4234 32.8251 21.6143 32.9358 21.7381C32.9962 21.8 33.0716 21.8362 33.1522 21.8362C33.2226 21.8362 33.2981 21.8104 33.3534 21.7536L36.3674 18.8853C36.3825 18.973 36.3926 19.0607 36.3976 19.1535C36.4278 19.5662 36.4077 19.9738 36.3322 20.371Z" fill="#70719C"/>
<path d="M25.0964 17.1674C25.1568 17.2293 25.2323 17.2654 25.3128 17.2654C25.3832 17.2654 25.4587 17.2396 25.514 17.1828L29.9218 12.9783C30.0426 12.8648 30.0476 12.674 29.9369 12.5501C29.8262 12.4263 29.64 12.4212 29.5193 12.5347L25.1115 16.7392C24.9907 16.8527 24.9857 17.0435 25.0964 17.1674Z" fill="#70719C"/>
<path d="M18.3137 21.7742C19.3955 21.7742 20.276 20.8714 20.276 19.7623C20.276 18.6531 19.3955 17.7503 18.3137 17.7503C17.2319 17.7503 16.3513 18.6531 16.3513 19.7623C16.3513 20.8714 17.2319 21.7742 18.3137 21.7742ZM18.3137 18.3591C19.0684 18.3591 19.6823 18.9884 19.6823 19.7623C19.6823 20.5361 19.0684 21.1655 18.3137 21.1655C17.5589 21.1655 16.9451 20.5361 16.9451 19.7623C16.94 18.9884 17.5539 18.3591 18.3137 18.3591Z" fill="#70719C"/>
<path d="M22.8221 26.0613C21.7403 26.0613 20.8597 26.9641 20.8597 28.0733C20.8597 29.1824 21.7403 30.0852 22.8221 30.0852C23.9039 30.0852 24.7844 29.1824 24.7844 28.0733C24.7794 26.9641 23.8989 26.0613 22.8221 26.0613ZM22.8221 29.4765C22.0673 29.4765 21.4535 28.8471 21.4535 28.0733C21.4535 27.2994 22.0673 26.67 22.8221 26.67C23.5768 26.67 24.1907 27.2994 24.1907 28.0733C24.1907 28.8471 23.5768 29.4765 22.8221 29.4765Z" fill="#70719C"/>
<path d="M13.8053 26.0613C12.7235 26.0613 11.8429 26.9641 11.8429 28.0733C11.8429 29.1824 12.7235 30.0852 13.8053 30.0852C14.8871 30.0852 15.7676 29.1824 15.7676 28.0733C15.7626 26.9641 14.8821 26.0613 13.8053 26.0613ZM13.8053 29.4765C13.0505 29.4765 12.4367 28.8471 12.4367 28.0733C12.4367 27.2994 13.0505 26.67 13.8053 26.67C14.56 26.67 15.1739 27.2994 15.1739 28.0733C15.1739 28.8471 14.56 29.4765 13.8053 29.4765Z" fill="#70719C"/>
<path d="M36.9813 19.1019C36.9561 18.8079 36.9058 18.519 36.8303 18.2404C36.8253 18.2249 36.8253 18.2146 36.8203 18.1991C36.4479 16.8681 35.5271 15.759 34.3396 15.1399C34.3145 15.1244 34.2893 15.109 34.2642 15.1038C33.6604 14.8046 32.9962 14.6292 32.2968 14.6137C31.9647 14.6085 31.6426 14.6343 31.3206 14.6962C31.5672 14.0359 31.6779 13.324 31.6326 12.6121C31.4867 10.208 29.6149 8.23731 27.2802 8.02064C26.8323 7.97936 26.3845 8 25.9518 8.08254C25.4184 8.18572 24.9052 8.42819 24.4272 8.79963L15.6066 15.6919C15.6016 15.6971 15.5966 15.6971 15.5915 15.7022C14.3336 16.5896 13.5084 18.0805 13.5084 19.7623C13.5084 21.1449 14.0669 22.3985 14.9676 23.291C14.5952 23.1981 14.2078 23.1465 13.8053 23.1465C11.1536 23.1465 9 25.3545 9 28.0733C9 30.7868 11.1536 33 13.8053 33C15.8733 33 17.6394 31.6535 18.3137 29.7757C18.9879 31.6587 20.754 33 22.8221 33C24.0498 33 25.1668 32.5254 26.0172 31.7464C26.0273 31.7361 26.0424 31.7309 26.0524 31.7206L36.0705 22.0374C36.5083 21.604 36.8001 21.0675 36.9108 20.4897C36.9964 20.0357 37.0215 19.5714 36.9813 19.1019ZM24.7844 9.28456C25.187 8.96987 25.6197 8.76352 26.0625 8.68097C26.4449 8.60875 26.8374 8.58811 27.2298 8.62423C29.2777 8.80995 30.9181 10.5433 31.0489 12.6482C31.0942 13.4168 30.9432 14.1752 30.6162 14.8562L30.5155 14.949C30.5105 14.9542 30.5055 14.9542 30.5055 14.9593L29.7004 15.7229L22.4598 22.2489C22.8774 21.5215 23.1189 20.6702 23.1189 19.7674C23.1189 18.6067 22.7265 17.544 22.0724 16.6979L25.8562 13.4117C25.982 13.3033 25.9971 13.1125 25.8914 12.9835C25.7857 12.8545 25.5996 12.839 25.4738 12.9474L21.6748 16.2439C20.8094 15.3721 19.6219 14.8355 18.3137 14.8355C18.0722 14.8355 17.8407 14.8562 17.6092 14.8871L24.7844 9.28456ZM14.0971 19.7623C14.0971 17.3789 15.989 15.4443 18.3086 15.4443C20.6333 15.4443 22.5202 17.384 22.5202 19.7623C22.5202 22.1405 20.6283 24.0803 18.3086 24.0803C15.989 24.0854 14.0971 22.1457 14.0971 19.7623ZM18.3137 24.689C18.7162 24.689 19.1037 24.6374 19.476 24.5446C18.9628 25.0553 18.5653 25.6795 18.3137 26.376C18.0621 25.6795 17.6596 25.0553 17.1514 24.5446C17.5237 24.6374 17.9111 24.689 18.3137 24.689ZM13.8053 32.3912C11.4806 32.3912 9.59374 30.4515 9.59374 28.0733C9.59374 25.695 11.4857 23.7553 13.8053 23.7553C16.1299 23.7553 18.0168 25.695 18.0168 28.0733C18.0168 30.4515 16.1249 32.3912 13.8053 32.3912ZM18.6055 28.0733C18.6055 25.6898 20.4974 23.7553 22.817 23.7553C25.1417 23.7553 27.0286 25.695 27.0286 28.0733C27.0286 30.4515 25.1367 32.3912 22.817 32.3912C20.4974 32.3912 18.6055 30.4567 18.6055 28.0733ZM36.3322 20.371C36.2466 20.825 36.0152 21.2532 35.6579 21.604L27.3909 29.5951C27.5418 29.1154 27.6273 28.6046 27.6273 28.0733C27.6273 27.1808 27.3909 26.3399 26.9833 25.6125L29.1469 23.6779C29.2677 23.5695 29.2828 23.3787 29.1771 23.2497C29.0714 23.1259 28.8853 23.1104 28.7595 23.2187L26.6562 25.1017C25.7807 23.9152 24.3869 23.1414 22.8271 23.1414C22.6611 23.1414 22.495 23.1517 22.329 23.1671L30.1029 16.1665L30.8728 15.434C31.3307 15.2792 31.8087 15.2018 32.2968 15.2121C32.7647 15.2225 33.2176 15.3153 33.6402 15.4752L27.6777 20.9901C27.5569 21.1036 27.5468 21.2945 27.6575 21.4183C27.7179 21.4853 27.7984 21.5163 27.8789 21.5163C27.9494 21.5163 28.0198 21.4905 28.0752 21.4389L34.2189 15.759C35.1497 16.2852 35.8743 17.1622 36.2114 18.2095L32.9509 21.3099C32.8301 21.4234 32.8251 21.6143 32.9358 21.7381C32.9962 21.8 33.0716 21.8362 33.1522 21.8362C33.2226 21.8362 33.2981 21.8104 33.3534 21.7536L36.3674 18.8853C36.3825 18.973 36.3926 19.0607 36.3976 19.1535C36.4278 19.5662 36.4077 19.9738 36.3322 20.371Z" stroke="#70719C" stroke-width="0.6" mask="url(#path-2-outside-1)"/>
<path d="M25.0964 17.1674C25.1568 17.2293 25.2323 17.2654 25.3128 17.2654C25.3832 17.2654 25.4587 17.2396 25.514 17.1828L29.9218 12.9783C30.0426 12.8648 30.0476 12.674 29.9369 12.5501C29.8262 12.4263 29.64 12.4212 29.5193 12.5347L25.1115 16.7392C24.9907 16.8527 24.9857 17.0435 25.0964 17.1674Z" stroke="#70719C" stroke-width="0.6" mask="url(#path-2-outside-1)"/>
<path d="M18.3137 21.7742C19.3955 21.7742 20.276 20.8714 20.276 19.7623C20.276 18.6531 19.3955 17.7503 18.3137 17.7503C17.2319 17.7503 16.3513 18.6531 16.3513 19.7623C16.3513 20.8714 17.2319 21.7742 18.3137 21.7742ZM18.3137 18.3591C19.0684 18.3591 19.6823 18.9884 19.6823 19.7623C19.6823 20.5361 19.0684 21.1655 18.3137 21.1655C17.5589 21.1655 16.9451 20.5361 16.9451 19.7623C16.94 18.9884 17.5539 18.3591 18.3137 18.3591Z" stroke="#70719C" stroke-width="0.6" mask="url(#path-2-outside-1)"/>
<path d="M22.8221 26.0613C21.7403 26.0613 20.8597 26.9641 20.8597 28.0733C20.8597 29.1824 21.7403 30.0852 22.8221 30.0852C23.9039 30.0852 24.7844 29.1824 24.7844 28.0733C24.7794 26.9641 23.8989 26.0613 22.8221 26.0613ZM22.8221 29.4765C22.0673 29.4765 21.4535 28.8471 21.4535 28.0733C21.4535 27.2994 22.0673 26.67 22.8221 26.67C23.5768 26.67 24.1907 27.2994 24.1907 28.0733C24.1907 28.8471 23.5768 29.4765 22.8221 29.4765Z" stroke="#70719C" stroke-width="0.6" mask="url(#path-2-outside-1)"/>
<path d="M13.8053 26.0613C12.7235 26.0613 11.8429 26.9641 11.8429 28.0733C11.8429 29.1824 12.7235 30.0852 13.8053 30.0852C14.8871 30.0852 15.7676 29.1824 15.7676 28.0733C15.7626 26.9641 14.8821 26.0613 13.8053 26.0613ZM13.8053 29.4765C13.0505 29.4765 12.4367 28.8471 12.4367 28.0733C12.4367 27.2994 13.0505 26.67 13.8053 26.67C14.56 26.67 15.1739 27.2994 15.1739 28.0733C15.1739 28.8471 14.56 29.4765 13.8053 29.4765Z" stroke="#70719C" stroke-width="0.6" mask="url(#path-2-outside-1)"/>
<rect x="6.73657" y="7.15076" width="2" height="44" transform="rotate(-45 6.73657 7.15076)" fill="#70719C"/>
</svg>
