<svg width="23" height="23" viewBox="0 0 23 23" fill="none" xmlns="http://www.w3.org/2000/svg">
<path d="M11.5014 21.3835C6.05054 21.3835 1.61649 16.9496 1.61649 11.5005C1.61649 6.0504 6.05054 1.61645 11.5014 1.61645C16.9506 1.61645 21.3835 6.0504 21.3835 11.5005C21.3835 16.9496 16.9506 21.3835 11.5014 21.3835ZM11.5014 0C5.15932 0 0 5.15973 0 11.5005C0 17.8414 5.15932 23 11.5014 23C17.8418 23 23 17.8414 23 11.5005C23 5.15973 17.8418 0 11.5014 0Z" fill="white"/>
<path d="M14.5167 8.77412L10.7658 12.5248L8.48335 10.2419C8.16759 9.92611 7.65625 9.92611 7.34049 10.2419C7.02474 10.5576 7.02474 11.0689 7.34049 11.3847L10.1941 14.2388C10.352 14.3967 10.5589 14.4759 10.7658 14.4759C10.9727 14.4759 11.1797 14.3967 11.3375 14.2388L15.6595 9.91695C15.9753 9.6012 15.9753 9.08987 15.6595 8.77412C15.3438 8.45837 14.8324 8.45837 14.5167 8.77412Z" fill="white"/>
</svg>
