<svg width="22" height="22" viewBox="0 0 22 22" fill="none" xmlns="http://www.w3.org/2000/svg">
<path d="M11.0013 20.4538C5.78748 20.4538 1.54621 16.2127 1.54621 11.0005C1.54621 5.78734 5.78748 1.54617 11.0013 1.54617C16.2136 1.54617 20.4538 5.78734 20.4538 11.0005C20.4538 16.2127 16.2136 20.4538 11.0013 20.4538ZM11.0013 0C4.935 0 0 4.9354 0 11.0005C0 17.0656 4.935 22 11.0013 22C17.066 22 22 17.0656 22 11.0005C22 4.9354 17.066 0 11.0013 0Z" fill="white"/>
<rect x="10" y="7" width="2" height="8" fill="white"/>
<rect x="15" y="10" width="2" height="8" transform="rotate(90 15 10)" fill="white"/>
</svg>
