<svg width="22" height="22" viewBox="0 0 22 22" fill="none" xmlns="http://www.w3.org/2000/svg">
<path d="M21.2186 3.03484C20.7459 2.99174 20.3279 3.34 20.2848 3.81266L20.1709 5.06172C18.2391 2.02787 14.8856 0 11 0C6.81994 0 3.13617 2.38571 1.3075 5.96638C1.09162 6.38907 1.25929 6.90671 1.68197 7.12259C2.10474 7.33846 2.6223 7.17084 2.83818 6.74811C4.38579 3.71778 7.4936 1.71875 11 1.71875C14.1959 1.71875 17.0801 3.38297 18.7324 5.99019L17.507 5.11504C17.1208 4.83923 16.5841 4.92869 16.3082 5.31489C16.0324 5.70114 16.1219 6.23782 16.5081 6.51368L20.2238 9.16747C20.7684 9.55569 21.5196 9.2003 21.5791 8.54618L21.9964 3.96872C22.0395 3.49602 21.6913 3.07794 21.2186 3.03484Z" fill="white"/>
<path d="M20.318 14.8774C19.8953 14.6616 19.3777 14.8292 19.1618 15.2519C17.6142 18.2822 14.5064 20.2812 11 20.2812C7.8041 20.2812 4.91994 18.617 3.26761 16.0098L4.49296 16.885C4.8792 17.1608 5.41588 17.0713 5.69174 16.6851C5.96756 16.2989 5.8781 15.7622 5.4919 15.4863L1.77616 12.8325C1.23823 12.4482 0.481033 12.793 0.420877 13.4538L0.00360542 18.0313C-0.0394924 18.5039 0.308771 18.922 0.781386 18.9651C1.25465 19.0081 1.67217 18.6595 1.71523 18.1873L1.8291 16.9382C3.76089 19.9721 7.11436 22 11 22C15.1801 22 18.8638 19.6143 20.6925 16.0336C20.9084 15.6109 20.7407 15.0933 20.318 14.8774Z" fill="white"/>
</svg>
