<svg width="24" height="24" viewBox="0 0 24 24" fill="none" xmlns="http://www.w3.org/2000/svg">
<path d="M12.0014 22.3133C6.31361 22.3133 1.68677 17.6866 1.68677 12.0006C1.68677 6.31346 6.31361 1.68674 12.0014 1.68674C17.6875 1.68674 22.3132 6.31346 22.3132 12.0006C22.3132 17.6866 17.6875 22.3133 12.0014 22.3133ZM12.0014 0C5.38363 0 0 5.38407 0 12.0006C0 18.6171 5.38363 24 12.0014 24C18.6175 24 24 18.6171 24 12.0006C24 5.38407 18.6175 0 12.0014 0Z" fill="white"/>
<path d="M15 16L15 9L8 9" stroke="white" stroke-width="2"/>
</svg>
