<svg width="76" height="50" viewBox="0 0 76 50" fill="none" xmlns="http://www.w3.org/2000/svg">
<path d="M22.408 3.33362C34.1687 3.33362 40.9363 15.5742 33.8006 23.5283C43.6547 30.8631 37.0003 46.8283 21.7378 46.8283C14.2906 46.8283 7.45696 46.8283 0.00976562 46.8283V3.33362C7.69293 3.33362 14.7154 3.33362 22.408 3.33362Z" fill="#4E55FC"/>
<path d="M75.0003 25.0143V24.0143H74.0003H52.9466L63.4762 5.56296L63.9715 4.69505L63.1039 4.19914C58.3604 1.48767 52.7693 0.442607 47.434 1.28858L47.4275 1.28965C36.0536 3.16962 27.4487 13.0928 27.4487 25.0143C27.4487 38.2939 38.0439 49 51.2245 49C64.4051 49 75.0003 38.2939 75.0003 25.0143Z" fill="url(#paint0_linear)" stroke="#252644" stroke-width="2"/>
<defs>
<linearGradient id="paint0_linear" x1="34.3536" y1="2.0022" x2="73.8443" y2="36.2571" gradientUnits="userSpaceOnUse">
<stop stop-color="#AE2BFE"/>
<stop offset="1" stop-color="#4F56FE"/>
</linearGradient>
</defs>
</svg>
