<svg width="71" height="71" viewBox="0 0 71 71" fill="none" xmlns="http://www.w3.org/2000/svg">
<path d="M1 0.769287H3.76923V3.53852H1V0.769287ZM3.76923 0.769287H6.53846V3.53852H3.76923V0.769287ZM6.53846 0.769287H9.30769V3.53852H6.53846V0.769287ZM9.30769 0.769287H12.0769V3.53852H9.30769V0.769287ZM12.0769 0.769287H14.8462V3.53852H12.0769V0.769287ZM14.8462 0.769287H17.6154V3.53852H14.8462V0.769287ZM17.6154 0.769287H20.3846V3.53852H17.6154V0.769287ZM28.6923 0.769287H31.4615V3.53852H28.6923V0.769287ZM34.2308 0.769287H37V3.53852H34.2308V0.769287ZM37 0.769287H39.7692V3.53852H37V0.769287ZM50.8462 0.769287H53.6154V3.53852H50.8462V0.769287ZM53.6154 0.769287H56.3846V3.53852H53.6154V0.769287ZM56.3846 0.769287H59.1538V3.53852H56.3846V0.769287ZM59.1538 0.769287H61.9231V3.53852H59.1538V0.769287ZM61.9231 0.769287H64.6923V3.53852H61.9231V0.769287ZM64.6923 0.769287H67.4615V3.53852H64.6923V0.769287ZM67.4615 0.769287H70.2308V3.53852H67.4615V0.769287ZM1 3.53852H3.76923V6.30775H1V3.53852ZM17.6154 3.53852H20.3846V6.30775H17.6154V3.53852ZM25.9231 3.53852H28.6923V6.30775H25.9231V3.53852ZM28.6923 3.53852H31.4615V6.30775H28.6923V3.53852ZM31.4615 3.53852H34.2308V6.30775H31.4615V3.53852ZM34.2308 3.53852H37V6.30775H34.2308V3.53852ZM39.7692 3.53852H42.5385V6.30775H39.7692V3.53852ZM50.8462 3.53852H53.6154V6.30775H50.8462V3.53852ZM67.4615 3.53852H70.2308V6.30775H67.4615V3.53852ZM1 6.30775H3.76923V9.07698H1V6.30775ZM6.53846 6.30775H9.30769V9.07698H6.53846V6.30775ZM9.30769 6.30775H12.0769V9.07698H9.30769V6.30775ZM12.0769 6.30775H14.8462V9.07698H12.0769V6.30775ZM17.6154 6.30775H20.3846V9.07698H17.6154V6.30775ZM28.6923 6.30775H31.4615V9.07698H28.6923V6.30775ZM37 6.30775H39.7692V9.07698H37V6.30775ZM45.3077 6.30775H48.0769V9.07698H45.3077V6.30775ZM50.8462 6.30775H53.6154V9.07698H50.8462V6.30775ZM56.3846 6.30775H59.1538V9.07698H56.3846V6.30775ZM59.1538 6.30775H61.9231V9.07698H59.1538V6.30775ZM61.9231 6.30775H64.6923V9.07698H61.9231V6.30775ZM67.4615 6.30775H70.2308V9.07698H67.4615V6.30775ZM1 9.07698H3.76923V11.8462H1V9.07698ZM6.53846 9.07698H9.30769V11.8462H6.53846V9.07698ZM9.30769 9.07698H12.0769V11.8462H9.30769V9.07698ZM12.0769 9.07698H14.8462V11.8462H12.0769V9.07698ZM17.6154 9.07698H20.3846V11.8462H17.6154V9.07698ZM23.1538 9.07698H25.9231V11.8462H23.1538V9.07698ZM25.9231 9.07698H28.6923V11.8462H25.9231V9.07698ZM37 9.07698H39.7692V11.8462H37V9.07698ZM45.3077 9.07698H48.0769V11.8462H45.3077V9.07698ZM50.8462 9.07698H53.6154V11.8462H50.8462V9.07698ZM56.3846 9.07698H59.1538V11.8462H56.3846V9.07698ZM59.1538 9.07698H61.9231V11.8462H59.1538V9.07698ZM61.9231 9.07698H64.6923V11.8462H61.9231V9.07698ZM67.4615 9.07698H70.2308V11.8462H67.4615V9.07698ZM1 11.8462H3.76923V14.6154H1V11.8462ZM6.53846 11.8462H9.30769V14.6154H6.53846V11.8462ZM9.30769 11.8462H12.0769V14.6154H9.30769V11.8462ZM12.0769 11.8462H14.8462V14.6154H12.0769V11.8462ZM17.6154 11.8462H20.3846V14.6154H17.6154V11.8462ZM25.9231 11.8462H28.6923V14.6154H25.9231V11.8462ZM31.4615 11.8462H34.2308V14.6154H31.4615V11.8462ZM39.7692 11.8462H42.5385V14.6154H39.7692V11.8462ZM50.8462 11.8462H53.6154V14.6154H50.8462V11.8462ZM56.3846 11.8462H59.1538V14.6154H56.3846V11.8462ZM59.1538 11.8462H61.9231V14.6154H59.1538V11.8462ZM61.9231 11.8462H64.6923V14.6154H61.9231V11.8462ZM67.4615 11.8462H70.2308V14.6154H67.4615V11.8462ZM1 14.6154H3.76923V17.3847H1V14.6154ZM17.6154 14.6154H20.3846V17.3847H17.6154V14.6154ZM23.1538 14.6154H25.9231V17.3847H23.1538V14.6154ZM28.6923 14.6154H31.4615V17.3847H28.6923V14.6154ZM31.4615 14.6154H34.2308V17.3847H31.4615V14.6154ZM34.2308 14.6154H37V17.3847H34.2308V14.6154ZM37 14.6154H39.7692V17.3847H37V14.6154ZM39.7692 14.6154H42.5385V17.3847H39.7692V14.6154ZM50.8462 14.6154H53.6154V17.3847H50.8462V14.6154ZM67.4615 14.6154H70.2308V17.3847H67.4615V14.6154ZM1 17.3847H3.76923V20.1539H1V17.3847ZM3.76923 17.3847H6.53846V20.1539H3.76923V17.3847ZM6.53846 17.3847H9.30769V20.1539H6.53846V17.3847ZM9.30769 17.3847H12.0769V20.1539H9.30769V17.3847ZM12.0769 17.3847H14.8462V20.1539H12.0769V17.3847ZM14.8462 17.3847H17.6154V20.1539H14.8462V17.3847ZM17.6154 17.3847H20.3846V20.1539H17.6154V17.3847ZM23.1538 17.3847H25.9231V20.1539H23.1538V17.3847ZM28.6923 17.3847H31.4615V20.1539H28.6923V17.3847ZM34.2308 17.3847H37V20.1539H34.2308V17.3847ZM39.7692 17.3847H42.5385V20.1539H39.7692V17.3847ZM45.3077 17.3847H48.0769V20.1539H45.3077V17.3847ZM50.8462 17.3847H53.6154V20.1539H50.8462V17.3847ZM53.6154 17.3847H56.3846V20.1539H53.6154V17.3847ZM56.3846 17.3847H59.1538V20.1539H56.3846V17.3847ZM59.1538 17.3847H61.9231V20.1539H59.1538V17.3847ZM61.9231 17.3847H64.6923V20.1539H61.9231V17.3847ZM64.6923 17.3847H67.4615V20.1539H64.6923V17.3847ZM67.4615 17.3847H70.2308V20.1539H67.4615V17.3847ZM23.1538 20.1539H25.9231V22.9231H23.1538V20.1539ZM31.4615 20.1539H34.2308V22.9231H31.4615V20.1539ZM34.2308 20.1539H37V22.9231H34.2308V20.1539ZM39.7692 20.1539H42.5385V22.9231H39.7692V20.1539ZM42.5385 20.1539H45.3077V22.9231H42.5385V20.1539ZM45.3077 20.1539H48.0769V22.9231H45.3077V20.1539ZM3.76923 22.9231H6.53846V25.6924H3.76923V22.9231ZM6.53846 22.9231H9.30769V25.6924H6.53846V22.9231ZM17.6154 22.9231H20.3846V25.6924H17.6154V22.9231ZM25.9231 22.9231H28.6923V25.6924H25.9231V22.9231ZM28.6923 22.9231H31.4615V25.6924H28.6923V22.9231ZM31.4615 22.9231H34.2308V25.6924H31.4615V22.9231ZM37 22.9231H39.7692V25.6924H37V22.9231ZM39.7692 22.9231H42.5385V25.6924H39.7692V22.9231ZM45.3077 22.9231H48.0769V25.6924H45.3077V22.9231ZM50.8462 22.9231H53.6154V25.6924H50.8462V22.9231ZM53.6154 22.9231H56.3846V25.6924H53.6154V22.9231ZM59.1538 22.9231H61.9231V25.6924H59.1538V22.9231ZM23.1538 25.6924H25.9231V28.4616H23.1538V25.6924ZM28.6923 25.6924H31.4615V28.4616H28.6923V25.6924ZM37 25.6924H39.7692V28.4616H37V25.6924ZM42.5385 25.6924H45.3077V28.4616H42.5385V25.6924ZM48.0769 25.6924H50.8462V28.4616H48.0769V25.6924ZM50.8462 25.6924H53.6154V28.4616H50.8462V25.6924ZM53.6154 25.6924H56.3846V28.4616H53.6154V25.6924ZM59.1538 25.6924H61.9231V28.4616H59.1538V25.6924ZM64.6923 25.6924H67.4615V28.4616H64.6923V25.6924ZM67.4615 25.6924H70.2308V28.4616H67.4615V25.6924ZM3.76923 28.4616H6.53846V31.2308H3.76923V28.4616ZM17.6154 28.4616H20.3846V31.2308H17.6154V28.4616ZM20.3846 28.4616H23.1538V31.2308H20.3846V28.4616ZM28.6923 28.4616H31.4615V31.2308H28.6923V28.4616ZM42.5385 28.4616H45.3077V31.2308H42.5385V28.4616ZM45.3077 28.4616H48.0769V31.2308H45.3077V28.4616ZM48.0769 28.4616H50.8462V31.2308H48.0769V28.4616ZM50.8462 28.4616H53.6154V31.2308H50.8462V28.4616ZM53.6154 28.4616H56.3846V31.2308H53.6154V28.4616ZM59.1538 28.4616H61.9231V31.2308H59.1538V28.4616ZM61.9231 28.4616H64.6923V31.2308H61.9231V28.4616ZM67.4615 28.4616H70.2308V31.2308H67.4615V28.4616ZM3.76923 31.2308H6.53846V34.0001H3.76923V31.2308ZM6.53846 31.2308H9.30769V34.0001H6.53846V31.2308ZM20.3846 31.2308H23.1538V34.0001H20.3846V31.2308ZM23.1538 31.2308H25.9231V34.0001H23.1538V31.2308ZM25.9231 31.2308H28.6923V34.0001H25.9231V31.2308ZM28.6923 31.2308H31.4615V34.0001H28.6923V31.2308ZM37 31.2308H39.7692V34.0001H37V31.2308ZM42.5385 31.2308H45.3077V34.0001H42.5385V31.2308ZM53.6154 31.2308H56.3846V34.0001H53.6154V31.2308ZM56.3846 31.2308H59.1538V34.0001H56.3846V31.2308ZM59.1538 31.2308H61.9231V34.0001H59.1538V31.2308ZM1 34.0001H3.76923V36.7693H1V34.0001ZM3.76923 34.0001H6.53846V36.7693H3.76923V34.0001ZM9.30769 34.0001H12.0769V36.7693H9.30769V34.0001ZM17.6154 34.0001H20.3846V36.7693H17.6154V34.0001ZM23.1538 34.0001H25.9231V36.7693H23.1538V34.0001ZM37 34.0001H39.7692V36.7693H37V34.0001ZM42.5385 34.0001H45.3077V36.7693H42.5385V34.0001ZM50.8462 34.0001H53.6154V36.7693H50.8462V34.0001ZM53.6154 34.0001H56.3846V36.7693H53.6154V34.0001ZM67.4615 34.0001H70.2308V36.7693H67.4615V34.0001ZM9.30769 36.7693H12.0769V39.5385H9.30769V36.7693ZM23.1538 36.7693H25.9231V39.5385H23.1538V36.7693ZM28.6923 36.7693H31.4615V39.5385H28.6923V36.7693ZM37 36.7693H39.7692V39.5385H37V36.7693ZM42.5385 36.7693H45.3077V39.5385H42.5385V36.7693ZM45.3077 36.7693H48.0769V39.5385H45.3077V36.7693ZM50.8462 36.7693H53.6154V39.5385H50.8462V36.7693ZM53.6154 36.7693H56.3846V39.5385H53.6154V36.7693ZM64.6923 36.7693H67.4615V39.5385H64.6923V36.7693ZM67.4615 36.7693H70.2308V39.5385H67.4615V36.7693ZM1 39.5385H3.76923V42.3077H1V39.5385ZM3.76923 39.5385H6.53846V42.3077H3.76923V39.5385ZM12.0769 39.5385H14.8462V42.3077H12.0769V39.5385ZM14.8462 39.5385H17.6154V42.3077H14.8462V39.5385ZM17.6154 39.5385H20.3846V42.3077H17.6154V39.5385ZM23.1538 39.5385H25.9231V42.3077H23.1538V39.5385ZM25.9231 39.5385H28.6923V42.3077H25.9231V39.5385ZM31.4615 39.5385H34.2308V42.3077H31.4615V39.5385ZM34.2308 39.5385H37V42.3077H34.2308V39.5385ZM37 39.5385H39.7692V42.3077H37V39.5385ZM39.7692 39.5385H42.5385V42.3077H39.7692V39.5385ZM42.5385 39.5385H45.3077V42.3077H42.5385V39.5385ZM59.1538 39.5385H61.9231V42.3077H59.1538V39.5385ZM61.9231 39.5385H64.6923V42.3077H61.9231V39.5385ZM67.4615 39.5385H70.2308V42.3077H67.4615V39.5385ZM6.53846 42.3077H9.30769V45.077H6.53846V42.3077ZM20.3846 42.3077H23.1538V45.077H20.3846V42.3077ZM23.1538 42.3077H25.9231V45.077H23.1538V42.3077ZM28.6923 42.3077H31.4615V45.077H28.6923V42.3077ZM34.2308 42.3077H37V45.077H34.2308V42.3077ZM37 42.3077H39.7692V45.077H37V42.3077ZM39.7692 42.3077H42.5385V45.077H39.7692V42.3077ZM48.0769 42.3077H50.8462V45.077H48.0769V42.3077ZM50.8462 42.3077H53.6154V45.077H50.8462V42.3077ZM53.6154 42.3077H56.3846V45.077H53.6154V42.3077ZM56.3846 42.3077H59.1538V45.077H56.3846V42.3077ZM59.1538 42.3077H61.9231V45.077H59.1538V42.3077ZM1 45.077H3.76923V47.8462H1V45.077ZM3.76923 45.077H6.53846V47.8462H3.76923V45.077ZM9.30769 45.077H12.0769V47.8462H9.30769V45.077ZM17.6154 45.077H20.3846V47.8462H17.6154V45.077ZM20.3846 45.077H23.1538V47.8462H20.3846V45.077ZM28.6923 45.077H31.4615V47.8462H28.6923V45.077ZM37 45.077H39.7692V47.8462H37V45.077ZM45.3077 45.077H48.0769V47.8462H45.3077V45.077ZM48.0769 45.077H50.8462V47.8462H48.0769V45.077ZM50.8462 45.077H53.6154V47.8462H50.8462V45.077ZM53.6154 45.077H56.3846V47.8462H53.6154V45.077ZM56.3846 45.077H59.1538V47.8462H56.3846V45.077ZM64.6923 45.077H67.4615V47.8462H64.6923V45.077ZM23.1538 47.8462H25.9231V50.6154H23.1538V47.8462ZM31.4615 47.8462H34.2308V50.6154H31.4615V47.8462ZM37 47.8462H39.7692V50.6154H37V47.8462ZM45.3077 47.8462H48.0769V50.6154H45.3077V47.8462ZM56.3846 47.8462H59.1538V50.6154H56.3846V47.8462ZM67.4615 47.8462H70.2308V50.6154H67.4615V47.8462ZM1 50.6154H3.76923V53.3847H1V50.6154ZM3.76923 50.6154H6.53846V53.3847H3.76923V50.6154ZM6.53846 50.6154H9.30769V53.3847H6.53846V50.6154ZM9.30769 50.6154H12.0769V53.3847H9.30769V50.6154ZM12.0769 50.6154H14.8462V53.3847H12.0769V50.6154ZM14.8462 50.6154H17.6154V53.3847H14.8462V50.6154ZM17.6154 50.6154H20.3846V53.3847H17.6154V50.6154ZM31.4615 50.6154H34.2308V53.3847H31.4615V50.6154ZM37 50.6154H39.7692V53.3847H37V50.6154ZM45.3077 50.6154H48.0769V53.3847H45.3077V50.6154ZM50.8462 50.6154H53.6154V53.3847H50.8462V50.6154ZM56.3846 50.6154H59.1538V53.3847H56.3846V50.6154ZM67.4615 50.6154H70.2308V53.3847H67.4615V50.6154ZM1 53.3847H3.76923V56.1539H1V53.3847ZM17.6154 53.3847H20.3846V56.1539H17.6154V53.3847ZM25.9231 53.3847H28.6923V56.1539H25.9231V53.3847ZM42.5385 53.3847H45.3077V56.1539H42.5385V53.3847ZM45.3077 53.3847H48.0769V56.1539H45.3077V53.3847ZM56.3846 53.3847H59.1538V56.1539H56.3846V53.3847ZM64.6923 53.3847H67.4615V56.1539H64.6923V53.3847ZM67.4615 53.3847H70.2308V56.1539H67.4615V53.3847ZM1 56.1539H3.76923V58.9231H1V56.1539ZM6.53846 56.1539H9.30769V58.9231H6.53846V56.1539ZM9.30769 56.1539H12.0769V58.9231H9.30769V56.1539ZM12.0769 56.1539H14.8462V58.9231H12.0769V56.1539ZM17.6154 56.1539H20.3846V58.9231H17.6154V56.1539ZM28.6923 56.1539H31.4615V58.9231H28.6923V56.1539ZM34.2308 56.1539H37V58.9231H34.2308V56.1539ZM37 56.1539H39.7692V58.9231H37V56.1539ZM42.5385 56.1539H45.3077V58.9231H42.5385V56.1539ZM45.3077 56.1539H48.0769V58.9231H45.3077V56.1539ZM48.0769 56.1539H50.8462V58.9231H48.0769V56.1539ZM50.8462 56.1539H53.6154V58.9231H50.8462V56.1539ZM53.6154 56.1539H56.3846V58.9231H53.6154V56.1539ZM56.3846 56.1539H59.1538V58.9231H56.3846V56.1539ZM64.6923 56.1539H67.4615V58.9231H64.6923V56.1539ZM67.4615 56.1539H70.2308V58.9231H67.4615V56.1539ZM1 58.9231H3.76923V61.6924H1V58.9231ZM6.53846 58.9231H9.30769V61.6924H6.53846V58.9231ZM9.30769 58.9231H12.0769V61.6924H9.30769V58.9231ZM12.0769 58.9231H14.8462V61.6924H12.0769V58.9231ZM17.6154 58.9231H20.3846V61.6924H17.6154V58.9231ZM25.9231 58.9231H28.6923V61.6924H25.9231V58.9231ZM28.6923 58.9231H31.4615V61.6924H28.6923V58.9231ZM37 58.9231H39.7692V61.6924H37V58.9231ZM39.7692 58.9231H42.5385V61.6924H39.7692V58.9231ZM42.5385 58.9231H45.3077V61.6924H42.5385V58.9231ZM56.3846 58.9231H59.1538V61.6924H56.3846V58.9231ZM61.9231 58.9231H64.6923V61.6924H61.9231V58.9231ZM64.6923 58.9231H67.4615V61.6924H64.6923V58.9231ZM1 61.6924H3.76923V64.4616H1V61.6924ZM6.53846 61.6924H9.30769V64.4616H6.53846V61.6924ZM9.30769 61.6924H12.0769V64.4616H9.30769V61.6924ZM12.0769 61.6924H14.8462V64.4616H12.0769V61.6924ZM17.6154 61.6924H20.3846V64.4616H17.6154V61.6924ZM23.1538 61.6924H25.9231V64.4616H23.1538V61.6924ZM25.9231 61.6924H28.6923V64.4616H25.9231V61.6924ZM28.6923 61.6924H31.4615V64.4616H28.6923V61.6924ZM34.2308 61.6924H37V64.4616H34.2308V61.6924ZM39.7692 61.6924H42.5385V64.4616H39.7692V61.6924ZM45.3077 61.6924H48.0769V64.4616H45.3077V61.6924ZM48.0769 61.6924H50.8462V64.4616H48.0769V61.6924ZM53.6154 61.6924H56.3846V64.4616H53.6154V61.6924ZM56.3846 61.6924H59.1538V64.4616H56.3846V61.6924ZM59.1538 61.6924H61.9231V64.4616H59.1538V61.6924ZM64.6923 61.6924H67.4615V64.4616H64.6923V61.6924ZM67.4615 61.6924H70.2308V64.4616H67.4615V61.6924ZM1 64.4616H3.76923V67.2308H1V64.4616ZM17.6154 64.4616H20.3846V67.2308H17.6154V64.4616ZM23.1538 64.4616H25.9231V67.2308H23.1538V64.4616ZM25.9231 64.4616H28.6923V67.2308H25.9231V64.4616ZM28.6923 64.4616H31.4615V67.2308H28.6923V64.4616ZM37 64.4616H39.7692V67.2308H37V64.4616ZM45.3077 64.4616H48.0769V67.2308H45.3077V64.4616ZM48.0769 64.4616H50.8462V67.2308H48.0769V64.4616ZM50.8462 64.4616H53.6154V67.2308H50.8462V64.4616ZM53.6154 64.4616H56.3846V67.2308H53.6154V64.4616ZM56.3846 64.4616H59.1538V67.2308H56.3846V64.4616ZM1 67.2308H3.76923V70.0001H1V67.2308ZM3.76923 67.2308H6.53846V70.0001H3.76923V67.2308ZM6.53846 67.2308H9.30769V70.0001H6.53846V67.2308ZM9.30769 67.2308H12.0769V70.0001H9.30769V67.2308ZM12.0769 67.2308H14.8462V70.0001H12.0769V67.2308ZM14.8462 67.2308H17.6154V70.0001H14.8462V67.2308ZM17.6154 67.2308H20.3846V70.0001H17.6154V67.2308ZM28.6923 67.2308H31.4615V70.0001H28.6923V67.2308ZM31.4615 67.2308H34.2308V70.0001H31.4615V67.2308ZM37 67.2308H39.7692V70.0001H37V67.2308ZM45.3077 67.2308H48.0769V70.0001H45.3077V67.2308ZM50.8462 67.2308H53.6154V70.0001H50.8462V67.2308ZM59.1538 67.2308H61.9231V70.0001H59.1538V67.2308ZM67.4615 67.2308H70.2308V70.0001H67.4615V67.2308Z" fill="black"/>
<path d="M3.76923 0.769287H1V3.53852M3.76923 0.769287V3.53852M3.76923 0.769287H6.53846M3.76923 3.53852H1M3.76923 3.53852H6.53846M3.76923 3.53852V6.30775M1 3.53852V6.30775M6.53846 0.769287V3.53852M6.53846 0.769287H9.30769M6.53846 3.53852H9.30769M9.30769 0.769287V3.53852M9.30769 0.769287H12.0769M9.30769 3.53852H12.0769M12.0769 0.769287V3.53852M12.0769 0.769287H14.8462M12.0769 3.53852H14.8462M14.8462 0.769287V3.53852M14.8462 0.769287H17.6154M14.8462 3.53852H17.6154M17.6154 0.769287V3.53852M17.6154 0.769287H20.3846V3.53852M17.6154 3.53852H20.3846M17.6154 3.53852V6.30775M20.3846 3.53852V6.30775M31.4615 3.53852V0.769287H28.6923V3.53852M31.4615 3.53852H28.6923M31.4615 3.53852V6.30775M31.4615 3.53852H34.2308M28.6923 3.53852H25.9231V6.30775H28.6923M28.6923 3.53852V6.30775M37 0.769287H34.2308V3.53852M37 0.769287V3.53852M37 0.769287H39.7692V3.53852M37 3.53852H34.2308M37 3.53852H39.7692M37 3.53852V6.30775M34.2308 3.53852V6.30775M39.7692 3.53852H42.5385V6.30775H39.7692M39.7692 3.53852V6.30775M53.6154 0.769287H50.8462V3.53852M53.6154 0.769287V3.53852M53.6154 0.769287H56.3846M53.6154 3.53852H50.8462M53.6154 3.53852H56.3846M53.6154 3.53852V6.30775M50.8462 3.53852V6.30775M56.3846 0.769287V3.53852M56.3846 0.769287H59.1538M56.3846 3.53852H59.1538M59.1538 0.769287V3.53852M59.1538 0.769287H61.9231M59.1538 3.53852H61.9231M61.9231 0.769287V3.53852M61.9231 0.769287H64.6923M61.9231 3.53852H64.6923M64.6923 0.769287V3.53852M64.6923 0.769287H67.4615M64.6923 3.53852H67.4615M67.4615 0.769287V3.53852M67.4615 0.769287H70.2308V3.53852M67.4615 3.53852H70.2308M67.4615 3.53852V6.30775M70.2308 3.53852V6.30775M3.76923 6.30775H1M3.76923 6.30775V9.07698M1 6.30775V9.07698M20.3846 6.30775H17.6154M20.3846 6.30775V9.07698M17.6154 6.30775V9.07698M28.6923 6.30775H31.4615M28.6923 6.30775V9.07698M31.4615 6.30775H34.2308M31.4615 6.30775V9.07698H28.6923M34.2308 6.30775H37M37 6.30775H39.7692M37 6.30775V9.07698M39.7692 6.30775V9.07698M53.6154 6.30775H50.8462M53.6154 6.30775V9.07698M50.8462 6.30775V9.07698M70.2308 6.30775H67.4615M70.2308 6.30775V9.07698M67.4615 6.30775V9.07698M3.76923 9.07698H1M3.76923 9.07698V11.8462M1 9.07698V11.8462M9.30769 6.30775H6.53846V9.07698M9.30769 6.30775V9.07698M9.30769 6.30775H12.0769M9.30769 9.07698H6.53846M9.30769 9.07698H12.0769M9.30769 9.07698V11.8462M6.53846 9.07698V11.8462M12.0769 6.30775V9.07698M12.0769 6.30775H14.8462V9.07698M12.0769 9.07698H14.8462M12.0769 9.07698V11.8462M14.8462 9.07698V11.8462M20.3846 9.07698H17.6154M20.3846 9.07698V11.8462M17.6154 9.07698V11.8462M28.6923 9.07698H25.9231M28.6923 9.07698V11.8462M39.7692 9.07698H37M39.7692 9.07698V11.8462M37 9.07698V11.8462H39.7692M48.0769 9.07698V6.30775H45.3077V9.07698M48.0769 9.07698H45.3077M48.0769 9.07698V11.8462H45.3077V9.07698M53.6154 9.07698H50.8462M53.6154 9.07698V11.8462M50.8462 9.07698V11.8462M59.1538 6.30775H56.3846V9.07698M59.1538 6.30775V9.07698M59.1538 6.30775H61.9231M59.1538 9.07698H56.3846M59.1538 9.07698H61.9231M59.1538 9.07698V11.8462M56.3846 9.07698V11.8462M61.9231 6.30775V9.07698M61.9231 6.30775H64.6923V9.07698M61.9231 9.07698H64.6923M61.9231 9.07698V11.8462M64.6923 9.07698V11.8462M70.2308 9.07698H67.4615M70.2308 9.07698V11.8462M67.4615 9.07698V11.8462M3.76923 11.8462H1M3.76923 11.8462V14.6154M1 11.8462V14.6154M9.30769 11.8462H6.53846M9.30769 11.8462H12.0769M9.30769 11.8462V14.6154M6.53846 11.8462V14.6154H9.30769M12.0769 11.8462H14.8462M12.0769 11.8462V14.6154M14.8462 11.8462V14.6154H12.0769M20.3846 11.8462H17.6154M20.3846 11.8462V14.6154M17.6154 11.8462V14.6154M25.9231 9.07698H23.1538V11.8462H25.9231M25.9231 9.07698V11.8462M25.9231 11.8462H28.6923M25.9231 11.8462V14.6154M28.6923 11.8462V14.6154M39.7692 11.8462H42.5385V14.6154M39.7692 11.8462V14.6154M53.6154 11.8462H50.8462M53.6154 11.8462V14.6154M50.8462 11.8462V14.6154M59.1538 11.8462H56.3846M59.1538 11.8462H61.9231M59.1538 11.8462V14.6154M56.3846 11.8462V14.6154H59.1538M61.9231 11.8462H64.6923M61.9231 11.8462V14.6154M64.6923 11.8462V14.6154H61.9231M70.2308 11.8462H67.4615M70.2308 11.8462V14.6154M67.4615 11.8462V14.6154M3.76923 14.6154H1M3.76923 14.6154V17.3847M1 14.6154V17.3847M9.30769 14.6154H12.0769M20.3846 14.6154H17.6154M20.3846 14.6154V17.3847M17.6154 14.6154V17.3847M28.6923 14.6154H25.9231M28.6923 14.6154H31.4615M28.6923 14.6154V17.3847M25.9231 14.6154H23.1538V17.3847M25.9231 14.6154V17.3847M34.2308 14.6154V11.8462H31.4615V14.6154M34.2308 14.6154H31.4615M34.2308 14.6154V17.3847M34.2308 14.6154H37M31.4615 14.6154V17.3847M42.5385 14.6154H39.7692M42.5385 14.6154V17.3847M39.7692 14.6154H37M39.7692 14.6154V17.3847M53.6154 14.6154H50.8462M53.6154 14.6154V17.3847M50.8462 14.6154V17.3847M59.1538 14.6154H61.9231M70.2308 14.6154H67.4615M70.2308 14.6154V17.3847M67.4615 14.6154V17.3847M3.76923 17.3847H1M3.76923 17.3847V20.1539M3.76923 17.3847H6.53846M1 17.3847V20.1539H3.76923M20.3846 17.3847H17.6154M20.3846 17.3847V20.1539H17.6154M17.6154 17.3847H14.8462M17.6154 17.3847V20.1539M25.9231 17.3847H23.1538M25.9231 17.3847V20.1539M23.1538 17.3847V20.1539M31.4615 17.3847H28.6923M31.4615 17.3847H34.2308M31.4615 17.3847V20.1539M28.6923 17.3847V20.1539H31.4615M34.2308 17.3847H37M34.2308 17.3847V20.1539M37 14.6154V17.3847M37 17.3847H39.7692M37 17.3847V20.1539M39.7692 17.3847H42.5385M39.7692 17.3847V20.1539M42.5385 17.3847V20.1539M53.6154 17.3847H50.8462M53.6154 17.3847V20.1539M53.6154 17.3847H56.3846M50.8462 17.3847V20.1539H53.6154M70.2308 17.3847H67.4615M70.2308 17.3847V20.1539H67.4615M67.4615 17.3847H64.6923M67.4615 17.3847V20.1539M3.76923 20.1539H6.53846M6.53846 17.3847V20.1539M6.53846 17.3847H9.30769M6.53846 20.1539H9.30769M9.30769 17.3847V20.1539M9.30769 17.3847H12.0769M9.30769 20.1539H12.0769M12.0769 17.3847V20.1539M12.0769 17.3847H14.8462M12.0769 20.1539H14.8462M14.8462 17.3847V20.1539M14.8462 20.1539H17.6154M25.9231 20.1539H23.1538M25.9231 20.1539V22.9231M23.1538 20.1539V22.9231H25.9231M31.4615 20.1539H34.2308M31.4615 20.1539V22.9231M37 20.1539H34.2308M37 20.1539V22.9231M34.2308 20.1539V22.9231M42.5385 20.1539H39.7692M42.5385 20.1539V22.9231M42.5385 20.1539H45.3077M39.7692 20.1539V22.9231M48.0769 20.1539V17.3847H45.3077V20.1539M48.0769 20.1539H45.3077M48.0769 20.1539V22.9231M45.3077 20.1539V22.9231M53.6154 20.1539H56.3846M56.3846 17.3847V20.1539M56.3846 17.3847H59.1538M56.3846 20.1539H59.1538M59.1538 17.3847V20.1539M59.1538 17.3847H61.9231M59.1538 20.1539H61.9231M61.9231 17.3847V20.1539M61.9231 17.3847H64.6923M61.9231 20.1539H64.6923M64.6923 17.3847V20.1539M64.6923 20.1539H67.4615M25.9231 22.9231H28.6923M25.9231 22.9231V25.6924M34.2308 22.9231H31.4615M34.2308 22.9231H37M34.2308 22.9231V25.6924H31.4615M31.4615 22.9231H28.6923M31.4615 22.9231V25.6924M37 22.9231H39.7692M37 22.9231V25.6924M42.5385 22.9231H39.7692M42.5385 22.9231H45.3077M42.5385 22.9231V25.6924M39.7692 22.9231V25.6924M45.3077 22.9231H48.0769M45.3077 22.9231V25.6924M48.0769 22.9231V25.6924M6.53846 22.9231H3.76923V25.6924H6.53846M6.53846 22.9231V25.6924M6.53846 22.9231H9.30769V25.6924H6.53846M28.6923 22.9231V25.6924M28.6923 25.6924H25.9231M28.6923 25.6924H31.4615M28.6923 25.6924V28.4616M25.9231 25.6924H23.1538V28.4616M25.9231 25.6924V28.4616H23.1538M31.4615 25.6924V28.4616M39.7692 25.6924H37M39.7692 25.6924H42.5385M39.7692 25.6924V28.4616H37V25.6924M42.5385 25.6924H45.3077M42.5385 25.6924V28.4616M48.0769 25.6924H45.3077M48.0769 25.6924H50.8462M48.0769 25.6924V28.4616M45.3077 25.6924V28.4616M53.6154 22.9231H50.8462V25.6924M53.6154 22.9231V25.6924M53.6154 22.9231H56.3846V25.6924M53.6154 25.6924H50.8462M53.6154 25.6924H56.3846M53.6154 25.6924V28.4616M50.8462 25.6924V28.4616M56.3846 25.6924V28.4616M61.9231 25.6924V22.9231H59.1538V25.6924M61.9231 25.6924H59.1538M61.9231 25.6924V28.4616M59.1538 25.6924V28.4616M23.1538 28.4616H20.3846M23.1538 28.4616V31.2308M31.4615 28.4616H28.6923M31.4615 28.4616V31.2308M28.6923 28.4616V31.2308M45.3077 28.4616H42.5385M45.3077 28.4616V31.2308M45.3077 28.4616H48.0769M42.5385 28.4616V31.2308M50.8462 28.4616H48.0769M50.8462 28.4616H53.6154M50.8462 28.4616V31.2308M48.0769 28.4616V31.2308M53.6154 28.4616H56.3846M53.6154 28.4616V31.2308M56.3846 28.4616V31.2308M61.9231 28.4616H59.1538M61.9231 28.4616V31.2308M61.9231 28.4616H64.6923M59.1538 28.4616V31.2308M67.4615 25.6924H64.6923V28.4616M67.4615 25.6924V28.4616M67.4615 25.6924H70.2308V28.4616M67.4615 28.4616H64.6923M67.4615 28.4616H70.2308M67.4615 28.4616V31.2308H70.2308V28.4616M64.6923 28.4616V31.2308H61.9231M6.53846 31.2308V28.4616H3.76923V31.2308M6.53846 31.2308H3.76923M6.53846 31.2308V34.0001M6.53846 31.2308H9.30769V34.0001M3.76923 31.2308V34.0001M20.3846 28.4616H17.6154V31.2308H20.3846M20.3846 28.4616V31.2308M20.3846 31.2308H23.1538M20.3846 31.2308V34.0001M23.1538 31.2308V34.0001M23.1538 31.2308H25.9231M31.4615 31.2308H28.6923M31.4615 31.2308V34.0001H28.6923M28.6923 31.2308H25.9231M28.6923 31.2308V34.0001M45.3077 31.2308H42.5385M45.3077 31.2308H48.0769M45.3077 31.2308V34.0001M42.5385 31.2308V34.0001M48.0769 31.2308H50.8462M50.8462 31.2308H53.6154M53.6154 31.2308H56.3846M53.6154 31.2308V34.0001M56.3846 31.2308V34.0001M56.3846 31.2308H59.1538M61.9231 31.2308H59.1538M61.9231 31.2308V34.0001H59.1538M59.1538 31.2308V34.0001M6.53846 34.0001H3.76923M6.53846 34.0001H9.30769M6.53846 34.0001V36.7693H3.76923M3.76923 34.0001H1V36.7693H3.76923M3.76923 34.0001V36.7693M9.30769 34.0001H12.0769V36.7693M9.30769 34.0001V36.7693M23.1538 34.0001H20.3846M23.1538 34.0001H25.9231M23.1538 34.0001V36.7693M20.3846 34.0001H17.6154V36.7693H20.3846V34.0001ZM25.9231 31.2308V34.0001M25.9231 34.0001H28.6923M25.9231 34.0001V36.7693M39.7692 34.0001V31.2308H37V34.0001M39.7692 34.0001H37M39.7692 34.0001V36.7693M37 34.0001V36.7693M45.3077 34.0001H42.5385M45.3077 34.0001V36.7693M42.5385 34.0001V36.7693M56.3846 34.0001H53.6154M56.3846 34.0001H59.1538M56.3846 34.0001V36.7693M53.6154 34.0001H50.8462V36.7693M53.6154 34.0001V36.7693M12.0769 36.7693H9.30769M12.0769 36.7693V39.5385M9.30769 36.7693V39.5385H12.0769M25.9231 36.7693H23.1538M25.9231 36.7693V39.5385M23.1538 36.7693V39.5385M39.7692 36.7693H37M39.7692 36.7693V39.5385M37 36.7693V39.5385M45.3077 36.7693H42.5385M45.3077 36.7693V39.5385M45.3077 36.7693H48.0769V39.5385H45.3077M42.5385 36.7693V39.5385M53.6154 36.7693H50.8462M53.6154 36.7693H56.3846M53.6154 36.7693V39.5385M50.8462 36.7693V39.5385H53.6154M56.3846 36.7693V39.5385H53.6154M70.2308 36.7693V34.0001H67.4615V36.7693M70.2308 36.7693H67.4615M70.2308 36.7693V39.5385M67.4615 36.7693H64.6923V39.5385M67.4615 36.7693V39.5385M12.0769 39.5385H14.8462M12.0769 39.5385V42.3077H14.8462M25.9231 39.5385H23.1538M25.9231 39.5385V42.3077M25.9231 39.5385H28.6923M23.1538 39.5385V42.3077M31.4615 39.5385V36.7693H28.6923V39.5385M31.4615 39.5385H28.6923M31.4615 39.5385H34.2308M31.4615 39.5385V42.3077M28.6923 39.5385V42.3077M39.7692 39.5385H37M39.7692 39.5385V42.3077M39.7692 39.5385H42.5385M37 39.5385H34.2308M37 39.5385V42.3077M45.3077 39.5385H42.5385M45.3077 39.5385V42.3077H42.5385M42.5385 39.5385V42.3077M67.4615 39.5385H64.6923M67.4615 39.5385H70.2308M67.4615 39.5385V42.3077H70.2308V39.5385M64.6923 39.5385H61.9231M64.6923 39.5385V42.3077H61.9231M3.76923 39.5385H1V42.3077H3.76923M3.76923 39.5385V42.3077M3.76923 39.5385H6.53846V42.3077M3.76923 42.3077H6.53846M6.53846 42.3077H9.30769V45.077M6.53846 42.3077V45.077M14.8462 39.5385V42.3077M14.8462 39.5385H17.6154M14.8462 42.3077H17.6154M17.6154 39.5385V42.3077M17.6154 39.5385H20.3846V42.3077M17.6154 42.3077H20.3846M20.3846 42.3077H23.1538M20.3846 42.3077V45.077M25.9231 42.3077H23.1538M25.9231 42.3077H28.6923M25.9231 42.3077V45.077H23.1538M23.1538 42.3077V45.077M28.6923 42.3077H31.4615M28.6923 42.3077V45.077M34.2308 39.5385V42.3077M34.2308 42.3077H31.4615M34.2308 42.3077H37M34.2308 42.3077V45.077H37M31.4615 42.3077V45.077M37 42.3077H39.7692M37 42.3077V45.077M39.7692 42.3077H42.5385M39.7692 42.3077V45.077M42.5385 42.3077V45.077H39.7692M61.9231 39.5385H59.1538V42.3077M61.9231 39.5385V42.3077M61.9231 42.3077H59.1538M61.9231 42.3077V45.077H59.1538M59.1538 42.3077H56.3846M59.1538 42.3077V45.077M9.30769 45.077H6.53846M9.30769 45.077H12.0769V47.8462H9.30769V45.077ZM6.53846 45.077H3.76923M6.53846 45.077V47.8462H3.76923M23.1538 45.077H20.3846M23.1538 45.077V47.8462M20.3846 45.077H17.6154V47.8462H20.3846M20.3846 45.077V47.8462M31.4615 45.077H28.6923M31.4615 45.077V47.8462M28.6923 45.077V47.8462H31.4615M37 45.077H39.7692M37 45.077V47.8462M39.7692 45.077V47.8462M50.8462 42.3077H48.0769V45.077M50.8462 42.3077V45.077M50.8462 42.3077H53.6154M50.8462 45.077H48.0769M50.8462 45.077H53.6154M50.8462 45.077V47.8462M48.0769 45.077H45.3077V47.8462M48.0769 45.077V47.8462M53.6154 42.3077V45.077M53.6154 42.3077H56.3846M53.6154 45.077H56.3846M53.6154 45.077V47.8462M56.3846 42.3077V45.077M56.3846 45.077H59.1538M56.3846 45.077V47.8462M59.1538 45.077V47.8462M3.76923 45.077H1V47.8462H3.76923M3.76923 45.077V47.8462M20.3846 47.8462H23.1538M23.1538 47.8462H25.9231V50.6154H23.1538V47.8462ZM31.4615 47.8462H34.2308V50.6154M31.4615 47.8462V50.6154M39.7692 47.8462H37M39.7692 47.8462V50.6154M37 47.8462V50.6154M48.0769 47.8462H45.3077M48.0769 47.8462H50.8462M48.0769 47.8462V50.6154M45.3077 47.8462V50.6154M50.8462 47.8462H53.6154M53.6154 47.8462H56.3846M56.3846 47.8462H59.1538M56.3846 47.8462V50.6154M59.1538 47.8462V50.6154M67.4615 47.8462V45.077H64.6923V47.8462H67.4615ZM67.4615 47.8462H70.2308V50.6154M67.4615 47.8462V50.6154M34.2308 50.6154H31.4615M34.2308 50.6154V53.3847H31.4615V50.6154M39.7692 50.6154H37M39.7692 50.6154V53.3847H37V50.6154M48.0769 50.6154H45.3077M48.0769 50.6154V53.3847M45.3077 50.6154V53.3847M59.1538 50.6154H56.3846M59.1538 50.6154V53.3847M56.3846 50.6154V53.3847M70.2308 50.6154H67.4615M70.2308 50.6154V53.3847M67.4615 50.6154V53.3847M3.76923 50.6154H1V53.3847M3.76923 50.6154V53.3847M3.76923 50.6154H6.53846M3.76923 53.3847H1M3.76923 53.3847H6.53846M3.76923 53.3847V56.1539M1 53.3847V56.1539M6.53846 50.6154V53.3847M6.53846 50.6154H9.30769M6.53846 53.3847H9.30769M9.30769 50.6154V53.3847M9.30769 50.6154H12.0769M9.30769 53.3847H12.0769M12.0769 50.6154V53.3847M12.0769 50.6154H14.8462M12.0769 53.3847H14.8462M14.8462 50.6154V53.3847M14.8462 50.6154H17.6154M14.8462 53.3847H17.6154M17.6154 50.6154V53.3847M17.6154 50.6154H20.3846V53.3847M17.6154 53.3847H20.3846M17.6154 53.3847V56.1539M20.3846 53.3847V56.1539M48.0769 53.3847H45.3077M48.0769 53.3847V56.1539M45.3077 53.3847H42.5385V56.1539M45.3077 53.3847V56.1539M59.1538 53.3847H56.3846M59.1538 53.3847V56.1539M56.3846 53.3847V56.1539M70.2308 53.3847H67.4615M70.2308 53.3847V56.1539M67.4615 53.3847H64.6923V56.1539M67.4615 53.3847V56.1539M3.76923 56.1539H1M3.76923 56.1539V58.9231M1 56.1539V58.9231M20.3846 56.1539H17.6154M20.3846 56.1539V58.9231M17.6154 56.1539V58.9231M28.6923 56.1539V53.3847H25.9231V56.1539H28.6923ZM28.6923 56.1539H31.4615V58.9231M28.6923 56.1539V58.9231M45.3077 56.1539H42.5385M45.3077 56.1539H48.0769M45.3077 56.1539V58.9231M42.5385 56.1539V58.9231M48.0769 56.1539V58.9231M48.0769 56.1539H50.8462M59.1538 56.1539H56.3846M59.1538 56.1539V58.9231M56.3846 56.1539H53.6154M56.3846 56.1539V58.9231M67.4615 56.1539H64.6923M67.4615 56.1539H70.2308M67.4615 56.1539V58.9231M64.6923 56.1539V58.9231M70.2308 56.1539V58.9231H67.4615M3.76923 58.9231H1M3.76923 58.9231V61.6924M1 58.9231V61.6924M9.30769 56.1539H6.53846V58.9231M9.30769 56.1539V58.9231M9.30769 56.1539H12.0769M9.30769 58.9231H6.53846M9.30769 58.9231H12.0769M9.30769 58.9231V61.6924M6.53846 58.9231V61.6924M12.0769 56.1539V58.9231M12.0769 56.1539H14.8462V58.9231M12.0769 58.9231H14.8462M12.0769 58.9231V61.6924M14.8462 58.9231V61.6924M20.3846 58.9231H17.6154M20.3846 58.9231V61.6924M17.6154 58.9231V61.6924M31.4615 58.9231H28.6923M31.4615 58.9231V61.6924M28.6923 58.9231H25.9231V61.6924M28.6923 58.9231V61.6924M37 56.1539H34.2308V58.9231H37M37 56.1539V58.9231M37 56.1539H39.7692V58.9231M37 58.9231H39.7692M37 58.9231V61.6924M39.7692 58.9231V61.6924M39.7692 58.9231H42.5385M45.3077 58.9231H42.5385M45.3077 58.9231H48.0769M45.3077 58.9231V61.6924M42.5385 58.9231V61.6924M48.0769 58.9231H50.8462M50.8462 56.1539V58.9231M50.8462 56.1539H53.6154M50.8462 58.9231H53.6154M53.6154 56.1539V58.9231M53.6154 58.9231H56.3846M56.3846 58.9231H59.1538M56.3846 58.9231V61.6924M59.1538 58.9231V61.6924M67.4615 58.9231H64.6923M67.4615 58.9231V61.6924M64.6923 58.9231H61.9231V61.6924M64.6923 58.9231V61.6924M3.76923 61.6924H1M3.76923 61.6924V64.4616M1 61.6924V64.4616M9.30769 61.6924H6.53846M9.30769 61.6924H12.0769M9.30769 61.6924V64.4616M6.53846 61.6924V64.4616H9.30769M12.0769 61.6924H14.8462M12.0769 61.6924V64.4616M14.8462 61.6924V64.4616H12.0769M20.3846 61.6924H17.6154M20.3846 61.6924V64.4616M17.6154 61.6924V64.4616M28.6923 61.6924H25.9231M28.6923 61.6924H31.4615M28.6923 61.6924V64.4616M25.9231 61.6924H23.1538V64.4616M25.9231 61.6924V64.4616M31.4615 61.6924V64.4616M39.7692 61.6924H37M39.7692 61.6924H42.5385M39.7692 61.6924V64.4616M37 61.6924H34.2308V64.4616H37M37 61.6924V64.4616M42.5385 61.6924H45.3077M42.5385 61.6924V64.4616H39.7692M45.3077 61.6924H48.0769M45.3077 61.6924V64.4616M59.1538 61.6924H56.3846M59.1538 61.6924V64.4616M59.1538 61.6924H61.9231M56.3846 61.6924H53.6154V64.4616M56.3846 61.6924V64.4616M64.6923 61.6924H61.9231M64.6923 61.6924H67.4615M64.6923 61.6924V64.4616H67.4615M61.9231 61.6924V64.4616H59.1538M67.4615 61.6924V64.4616M67.4615 61.6924H70.2308V64.4616H67.4615M3.76923 64.4616H1M3.76923 64.4616V67.2308M1 64.4616V67.2308M9.30769 64.4616H12.0769M20.3846 64.4616H17.6154M20.3846 64.4616V67.2308M17.6154 64.4616V67.2308M25.9231 64.4616H23.1538M25.9231 64.4616H28.6923M25.9231 64.4616V67.2308M23.1538 64.4616V67.2308H25.9231M28.6923 64.4616H31.4615M28.6923 64.4616V67.2308M31.4615 64.4616V67.2308M37 64.4616H39.7692M37 64.4616V67.2308M39.7692 64.4616V67.2308M48.0769 61.6924V64.4616M48.0769 61.6924H50.8462V64.4616M48.0769 64.4616H45.3077M48.0769 64.4616H50.8462M48.0769 64.4616V67.2308M45.3077 64.4616V67.2308M50.8462 64.4616V67.2308M50.8462 64.4616H53.6154M56.3846 64.4616H53.6154M56.3846 64.4616H59.1538M56.3846 64.4616V67.2308M53.6154 64.4616V67.2308M59.1538 64.4616V67.2308M3.76923 67.2308H1M3.76923 67.2308V70.0001M3.76923 67.2308H6.53846M1 67.2308V70.0001H3.76923M20.3846 67.2308H17.6154M20.3846 67.2308V70.0001H17.6154M17.6154 67.2308H14.8462M17.6154 67.2308V70.0001M25.9231 67.2308H28.6923M28.6923 67.2308H31.4615M28.6923 67.2308V70.0001H31.4615M31.4615 67.2308V70.0001M31.4615 67.2308H34.2308V70.0001H31.4615M39.7692 67.2308H37M39.7692 67.2308V70.0001H37V67.2308M48.0769 67.2308H45.3077M48.0769 67.2308H50.8462M48.0769 67.2308V70.0001H45.3077V67.2308M50.8462 67.2308H53.6154M50.8462 67.2308V70.0001H53.6154V67.2308M53.6154 67.2308H56.3846M56.3846 67.2308H59.1538M59.1538 67.2308H61.9231V70.0001H59.1538V67.2308ZM3.76923 70.0001H6.53846M6.53846 67.2308V70.0001M6.53846 67.2308H9.30769M6.53846 70.0001H9.30769M9.30769 67.2308V70.0001M9.30769 67.2308H12.0769M9.30769 70.0001H12.0769M12.0769 67.2308V70.0001M12.0769 67.2308H14.8462M12.0769 70.0001H14.8462M14.8462 67.2308V70.0001M14.8462 70.0001H17.6154M17.6154 22.9231H20.3846V25.6924H17.6154V22.9231ZM50.8462 50.6154H53.6154V53.3847H50.8462V50.6154ZM67.4615 67.2308H70.2308V70.0001H67.4615V67.2308Z" stroke="#252644"/>
</svg>
